<?xml version="1.0" encoding="utf-8"?>
<!-- Generator: Adobe Illustrator 21.1.0, SVG Export Plug-In . SVG Version: 6.00 Build 0)  -->
<svg version="1.1" id="Layer_1" xmlns="http://www.w3.org/2000/svg" xmlns:xlink="http://www.w3.org/1999/xlink" x="0px" y="0px"
	 viewBox="0 0 1000 1000.3" style="enable-background:new 0 0 1000 1000.3;" xml:space="preserve">
<style type="text/css">
	.st0{opacity:0.15;}
	.st1{fill:#1C7465;}
</style>
<g class="st0">
	<path class="st1" d="M0,452c27.7-0.8,52.2,21.5,54.8,49.8c2.6,28.7-17.8,55-45.8,59.2c-3,0.4-5.9,0.7-8.9,1c0-1,0-2,0-3
		c6.2-0.9,12.4-1.8,18.5-2.7c-0.1-0.9-0.1-1.9-0.2-2.8c-6.1-0.2-12.2-0.4-18.3-0.6c0-0.3,0-0.7,0-1c3.1-0.1,6.3,0,9.4-0.2
		c1.4-0.1,3.5-0.2,4-1c3.3-5.6,6.3-11.4,9.5-17.1c6.3-1.3,12.6-2.5,18.8-4c0.8-0.2,1.6-2,1.8-3.2c1.2-6.2,2.3-12.4,3.2-18.6
		c0.2-1-0.1-2.4-0.7-3.2c-3.1-3.9-6.4-7.7-9.7-11.4c-0.6-0.6-1.9-1.3-2.5-1.1c-7.1,3-15.9,3.3-17.7,13.9c-1,6.1-4.9,11.8,0.7,17.4
		c-1-1-2-2.1-3.1-2.8c-1.9-1.2-3.9-2.6-6-3c-2.5-0.4-5.2,0.1-7.8,0.2C0,496,0,474,0,452z M20.8,461.3c-6.4,1.2-12.9,2.3-19,3.5
		c-0.2,1.6-0.2,2.1-0.3,2.5c-1.6,11.2,2.5,19.1,12.6,24.8c4.3,2.4,7.3,3.2,12.1,1.8c7.3-2.1,10-6.1,9.7-13.4
		c-0.1-4.2,0.6-8.3-3.7-10.9c1.9,0.7,3.7,1.4,6.8,2.6c-6.3-6.9-12.7-11.2-20.5-13.4C19.2,459.6,20,460.5,20.8,461.3z M51.2,502.2
		c-5,9.5-4.9,20.2-6.7,30.4C50.8,523.4,52.8,513.2,51.2,502.2z"/>
	<path class="st1" d="M1000,562c-32.3-1.6-55.6-25.6-54.9-56.6c0.7-29.7,25.1-53.5,54.9-53.4c0,4.3,0,8.7,0,13
		c-2.7-0.6-5.5-1.1-8.2-1.8c-5-1.4-10-3.6-15,0.1c1.9-1.6,3.8-3.3,5.7-4.9c-0.2-0.4-0.5-0.7-0.7-1.1c-5.3,3.2-10.6,6.4-16,9.5
		c0.2,0.4,0.4,0.7,0.6,1.1c3.5-1.6,7-3.2,10.5-4.8c-3.9,2.5-7.7,5-11.6,7.4c-3.2,2.1-2.6,18,0.7,19.8c0.6,0.3,1.2,0.4,1.9,0.6
		c4.3,1.1,8.6,2.4,13,3.2c1.7,0.3,3.9-0.1,5.4-1c4.7-2.8,9.1-6.1,13.6-9.1c0,11.3,0,22.7,0,34c-3.7-0.1-8-2.7-11,1.3
		c-3.9,5.1-7.3,10.6-11.1,16c1.2,2,2.6,3.7,3.4,5.6c3.5,8.3,9.1,13,18.6,11.1c0,0.3,0,0.7,0,1c-5.6,1-11.7-1.5-16.9,3.8
		c5.6,0.7,11.2,1.5,16.9,2.2C1000,560,1000,561,1000,562z M965.7,491.6c-1.3,1.2-3.1,3-5,4.4c-7.9,6-8.6,12.8-5.5,22.4
		c2.8,8.5,6.6,13,15.3,14.7c4.8,1,7.2,0.4,10-3.8c9.6-14.5,9.8-14.4,3.6-30.5c-0.5-1.2-1.6-2.6-2.7-3
		C976.6,494.4,971.7,493.2,965.7,491.6z M948.6,504.1c-1.3,11.7,1.6,22.1,8.8,31.3C956.8,524.4,952.9,514.2,948.6,504.1z"/>
	<path class="st1" d="M555,0c-0.5,6.4-0.2,13.1-1.6,19.3c-6,26.8-32.2,45.4-58.6,42.2c-29-3.5-49.8-26.6-49.7-55
		c0-2.2,0-4.3-0.1-6.5c4,0,8,0,12,0c-5.4,4-4.9,9-2.6,14.5c1.1,2.6,2,5.3,2.4,8.1c0.8,5.3,3.7,7.4,8.8,9.1
		c7.2,2.4,12.9,3.1,16.8-4.6c-1.1,2-2.3,4-3.1,6.1c-0.4,1.2-0.7,2.9-0.1,3.9c7.5,14.8,7.5,14.8,24,14.7c2.3,0,4.7,0.1,7-0.1
		c1.1-0.1,2.7-0.2,3.1-0.9c3.3-5.7,6.4-11.5,9.6-17.3c6.3-1.3,12.5-2.5,18.8-3.9c0.6-0.1,1.4-1.1,1.5-1.7c0.4-9.4,7.5-18.8-0.1-28.1
		C547,0,551,0,555,0z M518.2,54.7c-11.7-1.9-23.4-2.6-35,0.5C494.9,60.4,506.6,59.9,518.2,54.7z M448.6,4.1
		c-1.3,11.7,1.7,22.1,8.8,31.3C456.8,24.4,453,14.2,448.6,4.1z M551.1,2.2c-5,9.5-4.9,20.1-6.6,30.3
		C550.8,23.3,552.9,13.1,551.1,2.2z"/>
	<path class="st1" d="M1000,666c-5.9-3.4-11.7-7-17.6-10.3c-7.3-4.1-14.3-8.5-18.5-16.7c-3.6,1.6-6.8,3.1-10.3,4.7
		c0.2,1.2,0.3,2.2,0.6,3.1c9.4,22.8,20.4,44.7,34.2,65.2c1.6,2.3,3.5,4.4,5.2,6.7c1.8,2.5,3.9,2.8,6.4,1.3c0,1,0,2,0,3
		c-10.6,4.7-21.5,8-33.4,6.2c-23.1-3.4-39.1-16-46-38.3c-6.8-21.8-1.4-41.5,15.6-56.9c17.3-15.6,37.5-18.1,59.2-9.6
		c1.5,0.6,3.1,1,4.6,1.5c0,1.3,0,2.7,0,4c-7.5-2.5-14.8-5.6-22.5-7.3c-6.1-1.4-13.3,6.8-11.9,13c11.2-3.8,22.7-4.4,34.3-2.7
		c0,1,0,2,0,3c-11.2-2.2-22.3-2-35,2.9c5.4,4.6,9.5,8.8,14.3,12.1c6.6,4.4,13.7,8.1,20.6,12.1C1000,664,1000,665,1000,666z
		 M993.6,722.9c-18.7-23.9-31-50.3-42.9-77.6c-3.5,2.6-6.5,4.8-9.8,7.3c4.5,9.1,3.1,18.3,2.3,27.6c-1,11.1-1.1,22.2-1.4,33.4
		c0,1.5,0.8,3.8,2,4.6C959.6,728.4,976.1,729.8,993.6,722.9z M939.9,654.4c-21.2,17.8-21.2,47-1.6,58.9c1.2-14,2.4-28.1,3.5-42.3
		c0.1-1.2,0.2-2.3,0.1-3.5C941.4,663.5,940.7,659.5,939.9,654.4z M949.9,642.9c-1.3-4.5-2.5-8.6-4.1-14.2
		c-6.2,5.9-11.6,11.1-17.3,16.6c4.8,1.7,8.4,3.1,12.1,4.4C943.5,647.6,946.6,645.3,949.9,642.9z M952.9,641.4c3.1-1.7,8.8-3.4,9-5.4
		c0.4-5.6,3-9.4,6.6-13.2c-3,0.1-5.7,0.3-8.1,1c-13.4,4.1-13.2,2.6-8.2,16.8C952.2,640.8,952.4,640.9,952.9,641.4z M936.7,651.4
		c-3.2-3.1-8.7-3.7-10.5-0.3c-4.5,8.6-6.5,17.9-5.5,26.6C925.8,669.4,931.1,660.6,936.7,651.4z"/>
	<path class="st1" d="M1000,166c-5.9-3.4-11.7-7-17.6-10.3c-9.4-5.3-11.5-7-18.9-16.6c-3.2,1.5-6.6,3.1-10.5,5
		c4.1,9.1,7.5,18,12,26.2c8.8,15.8,18.2,31.3,27.5,46.8c1.6,2.6,3.8,5.4,7.6,2.9c0,1,0,2,0,3c-10.6,4.7-21.5,8-33.4,6.2
		c-23.1-3.4-39.1-16-46-38.3c-6.8-21.8-1.4-41.5,15.6-56.9c17.3-15.6,37.5-18.1,59.2-9.6c1.5,0.6,3.1,1,4.6,1.5c0,1.3,0,2.7,0,4
		c-7.5-2.5-14.8-5.6-22.5-7.4c-6.1-1.4-13.2,6.8-12,12.6c5.7-1,11.4-2.5,17.1-2.9c5.7-0.4,11.6,0.4,17.3,0.6c0,1,0,2,0,3
		c-11.3-2.2-22.3-2-34.9,2.8c5,4.4,8.9,8.5,13.4,11.6c6.9,4.6,14.3,8.4,21.5,12.6C1000,164,1000,165,1000,166z M950.8,145.5
		c-2,1.4-3.5,2.6-5.2,3.6c-3.4,2-4.4,4.2-3,8.4c1.5,4.4,1.6,9.5,1.4,14.2c-0.5,10.5-1.9,20.9-2.2,31.3c-0.4,16,0.9,17.4,16.3,22
		c0.8,0.2,1.6,0.5,2.4,0.7c11.3,2.5,22.2,2,33-2.9C975,199.2,962.6,172.7,950.8,145.5z M938.8,214c0.5-9.9,0.8-19.3,1.4-28.7
		c0.4-6.1,1.6-12.2,1.6-18.4c0-3.9-1.3-7.8-2.2-12.4C918.7,173.2,918.6,198.9,938.8,214z M940.7,149.6c2.7-2,7.1-3.6,8.1-6.5
		c1.1-3-1.1-7.2-1.9-10.8c-0.2-0.8-0.4-1.5-1.1-3.8c-6.3,6-11.7,11.2-17.4,16.7C933.2,147,936.7,148.2,940.7,149.6z M962.2,136.9
		c-0.4-0.4-0.7-0.8-1.1-1.2c2.2-4.3,4.4-8.7,7.1-13.9c-6,1.8-11.7,3.5-17.4,5.5c-0.8,0.3-1.8,2.2-1.6,3.1c0.7,3.7,1.9,7.2,3,11.2
		C955.9,139.8,959.1,138.3,962.2,136.9z M920.7,177.6c5.2-8.4,10.6-17.2,16-26.2c-3.2-3.3-8.8-3.8-10.7-0.1
		C921.7,159.9,919.8,169.1,920.7,177.6z"/>
	<path class="st1" d="M753,0c-6.3,5.3-13.6,8.1-21.5,8.8c-0.3,0.5-0.6,0.7-0.7,1c-1.8,10.6-1.8,10.7,8.9,11.4
		c23.8,1.5,47.5,1.7,71.1-2c9-1.4,9-1.7,7.6-10.5c-0.5-2.9-0.9-5.9-1.4-8.8c0.7,0,1.3,0,2,0c9.7,32.7-10,62-37.6,69.7
		C741.2,81,703.7,45,713.2,4.4c0.3-1.4,0.6-2.9,0.8-4.4c1,0,2,0,3,0c-0.9,4.5-2.1,9.1-2.7,13.7c-0.2,1.3,0.8,3.6,1.8,3.9
		c3.6,1.2,7.5,1.8,11.8,2.7c0-2.4-0.2-3.9,0-5.4c0.5-3.7,0.1-6.4-3.9-8.4c-1.9-0.9-2.7-4.3-4-6.5c0.7,0,1.3,0,2,0
		c1.7,2.1,3.4,4.3,5.8,7.2c1-3.5,1.6-5.4,2.2-7.2c0.7,0,1.3,0,2,0c-0.2,1.9-0.5,3.8-0.8,6.1c6.5-0.4,12.2-1.7,16.8-6.1
		C749.7,0,751.3,0,753,0z M818.5,20.4c-29.1,5.6-58.2,4.8-88,2.8c0.6,3.7,0.9,6.9,1.7,10.1c0.2,0.9,1.8,2,2.8,2.1
		c8.5,0.9,15.2,5.5,22.1,9.8c9.6,5.9,19.5,11.4,29.4,16.8c1.5,0.8,4,1.2,5.5,0.6C806.2,56.5,818.9,36.2,818.5,20.4z M785.6,65.3
		c-12.7-7.8-25.1-15.7-37.9-23.2c-4-2.3-8.8-3.3-13.9-5.2C739.7,61.1,759.2,77.4,785.6,65.3z M720.2,42.9c3.8-3.5,6.5-6,9.5-8.8
		c-0.6-3.4-1.2-7.3-1.9-11.3c-4.4-0.9-8.7-1.7-14.6-2.9C715.7,28.2,717.9,35.5,720.2,42.9z M729.2,38.2c-0.5,0.3-2.1,1-3.1,2.1
		c-2.5,3-3.5,6-0.2,9.7c5.8,6.6,12.4,11.8,19.7,14.9C740.3,56.3,734.9,47.5,729.2,38.2z"/>
	<path class="st1" d="M253,0c-5.6,4.6-12,7.6-19.3,8.5c-5.7,0.7-2.8,5.4-3.5,8.3c-0.6,2.5,0.6,3.9,3.5,4.1
		c25.9,1.8,51.8,2.4,77.6-1.7c8.4-1.3,8.5-1.7,7.2-9.9c-0.5-3.1-1-6.2-1.5-9.3c0.7,0,1.3,0,2,0c9.8,32.6-10,62-37.6,69.7
		C241.3,81,203.7,45,213.2,4.4c0.3-1.4,0.6-2.9,0.8-4.4c1,0,2,0,3,0c-0.9,4.5-2.1,9.1-2.7,13.7c-0.2,1.3,0.8,3.6,1.8,4
		c3.6,1.2,7.5,1.8,11.8,2.7c0-2.1-0.1-3.2,0-4.4c0.4-4.1,0.4-7.5-4.3-9.7c-1.8-0.8-2.4-4.1-3.6-6.2c0.7,0,1.3,0,2,0
		c1.7,2.1,3.4,4.3,5.8,7.2c1.1-3.5,1.6-5.4,2.2-7.2c0.7,0,1.3,0,2,0c-0.2,1.9-0.5,3.8-0.7,5.6c6.2,0.5,12.1-1.6,16.7-5.6
		C249.7,0,251.3,0,253,0z M318.9,20.3c-29.4,5.8-58.6,4.9-88.4,2.9c0.6,3.6,0.8,6.8,1.6,9.7c0.3,1,1.9,2.3,3.1,2.4
		c8.1,0.9,14.7,5,21.3,9.3c7.1,4.6,14.3,9.1,21.8,13.2c13.1,7.1,15,6.7,25.5-4.1C312.8,44.5,317.9,33.5,318.9,20.3z M285.5,65.3
		c-12.2-7.5-24.3-15.2-36.6-22.4c-4.4-2.6-9.6-3.9-15.3-6.2C240.1,61.6,259.6,77.4,285.5,65.3z M213.1,19.9
		c2.6,8.4,4.9,15.6,7.1,22.9c3.7-3.4,6.4-5.9,9.4-8.7c-0.6-3.4-1.2-7.3-1.9-11c-0.5-0.2-0.8-0.4-1.1-0.5
		C222.8,21.8,218.9,21.1,213.1,19.9z M229.4,38.4c-5.7,1.8-7.5,6.8-3,11.9c2.5,2.9,5.2,5.6,8.3,7.9c3.6,2.7,7.7,4.8,11.1,6.9
		C240.3,56.3,234.9,47.5,229.4,38.4z"/>
	<path class="st1" d="M1000,278c-9.7,2.6-19.8,4.4-29.2,8.1c-10.2,4-18,11.9-24.5,20.8c-1.1,1.4-1.7,3.7-1.5,5.5
		c3.2,28.4,16.2,51.4,38.8,69c1.4,1.1,3.7,1.4,5.5,1.2c3.6-0.2,7.2-1,10.9-1.6c0,4.3,0,8.7,0,13c-0.6-0.1-1.3-0.1-1.9-0.4
		c-39.7-18.5-64.3-69.3-54.1-111.6c4.7-19.6,13.3-24.7,32.3-18.1c8.2,2.8,15.9,7.3,23.8,11.1C1000,276,1000,277,1000,278z
		 M989.1,271.7c-9.3-4.6-17.4-7.9-26.6-8c-4.8-0.1-8.3,2-10.8,5.9c-5.1,7.9-6.6,16.7-7.2,27.4C956.8,283.4,971,275.4,989.1,271.7z"
		/>
	<path class="st1" d="M1000,778c-15.7,1.6-30,6.5-42.6,16.6c-11,8.9-14.7,18.5-10.2,32.5c6.4,20.1,16.6,37.3,32.4,51.2
		c4.1,3.6,8.1,5.3,13.5,3.8c2.2-0.6,4.6-0.8,6.9-1.2c0,4.3,0,8.7,0,13c-0.5-0.1-1,0-1.5-0.2c-45.2-23-63.4-71.6-54.7-111.3
		c4.5-20.3,13.7-25.4,33.3-18.3c7.9,2.8,15.2,7.2,22.8,10.8C1000,776,1000,777,1000,778z M987.6,771.6c-7.8-4.5-15.9-7.8-25.2-7.9
		c-4.6,0-8,1.8-10.5,5.5c-5.3,8-6.9,16.9-7.5,27.7C956.7,783.6,970.7,775.5,987.6,771.6z"/>
	<path class="st1" d="M1000,62c-33.7-1.8-55.6-25.5-54.8-59.5c0-0.8-0.1-1.6-0.2-2.5c4,0,8,0,12,0c-5.2,4-5,8.9-2.6,14.4
		c1.2,2.9,1.7,6.1,2.8,9c0.8,2.2,1.6,5.5,3.2,6.2c5,2.1,10.4,3.5,15.7,4.4c2.2,0.4,13.3-17.9,12.7-20.3c-0.2-0.8-0.5-1.6-0.7-2.4
		c-1-3.8-2-7.6-3-11.5c5,0,10,0,15,0c0,6,0,12,0,18c-3.7-0.1-8-2.8-11,1.3c-3.9,5.2-7.3,10.6-11.1,16.1c1.2,2,2.6,3.7,3.4,5.6
		c3.5,8.3,9.1,13,18.6,11.1c0,0.3,0,0.7,0,1c-5.6,1-11.7-1.5-16.9,3.8c5.6,0.7,11.2,1.5,16.9,2.2C1000,60,1000,61,1000,62z
		 M957.5,35.4c-1-11-4.3-21.3-9-31.3C947.4,15.8,950.3,26.2,957.5,35.4z"/>
	<path class="st1" d="M0,881c15.7-4.3,28.8-12.6,38.7-25.7c1.1-1.5,2.2-3.6,2.1-5.3c-2.9-29.5-16-53.4-40.2-70.9
		C0.4,779,0.2,779,0,779c0-1,0-2,0-3c25.3,17.3,39.4,41.3,42.9,71.6c1.4,12.2,0.7,24.3-2.9,36.1c-4.6,14.8-11.7,18.9-26.7,15.4
		c-4.5-1-8.9-2.7-13.3-4.1c0-1,0-2,0-3c6.7,1.9,13.3,4.1,20.1,5.5c5.1,1,10-0.2,13.2-5.1c5.2-8,6.8-17,7.5-26.3
		c-0.6,0-0.8-0.1-0.9,0c-1.5,1.3-2.9,2.7-4.4,4c-10.2,9.1-21.6,16-35.5,17.9C0,885.7,0,883.3,0,881z"/>
	<path class="st1" d="M0,381c15.7-4.3,28.8-12.6,38.6-25.7c1.2-1.6,2.2-3.9,2-5.8c-2.9-28.8-15.8-52.1-38.9-69.6
		c-0.5-0.4-1.2-0.6-1.8-0.9c0-1,0-2,0-3c25.4,17.2,39.4,41.3,42.9,71.6c1.5,13,0.8,26-3.8,38.4c-4.6,12.6-11.2,16.3-24.4,13.4
		c-5-1.1-9.8-2.9-14.8-4.4c0-1,0-2,0-3c6.7,1.9,13.3,4.2,20.1,5.5c5.3,1,10.3-0.4,13.5-5.5c4.9-7.9,6.5-16.7,7.3-26.9
		c-2.1,1.9-3.4,3.2-4.7,4.4C25.8,378.9,14.2,386,0,388C0,385.7,0,383.3,0,381z"/>
	<path class="st1" d="M23,33.9c6-1.3,12-2.4,17.9-4c1.1-0.3,2.3-2.2,2.6-3.6c1.2-6,2.7-12.1,3-18.2C46.6,5.5,44.2,2.7,43,0
		c4,0,8,0,12,0c-1.1,8.5-0.7,17.5-3.6,25.4C42.8,48.9,24.7,60.4,0,62c0-1,0-2,0-3c6.4,0.2,12.5-1.1,18.4-3.5c0-0.6,0-1.3-0.1-1.9
		C12.2,53.4,6.1,53.2,0,53c0-0.3,0-0.7,0-1c3.2-0.1,6.3,0,9.5-0.2c1.4-0.1,3.5-0.2,4-1.1C16.8,45.2,19.8,39.5,23,33.9z M44.4,32.5
		c6.3-9.2,8.4-19.3,6.8-30.2C45.6,11.5,46.6,22.3,44.4,32.5z"/>
	<path class="st1" d="M518,0c-0.8,3-1.1,6.2-2.5,9c-2.9,5.7-2.1,10.6,2,15.4c1.8,2.1,2.9,4.8,4.4,7.2c-1.8-2.1-4-3.9-5.2-6.3
		c-2.8-5.9-6.9-8-13.6-7.9c-7.8,0-15.1-0.6-18.9,8.1c-0.1,0.3-0.5,0.4-0.7,0.7c0.1-0.5,0-1.2,0.3-1.4c6.9-6.6,4.8-13.8,1.8-21.2
		c-0.4-1-0.4-2.2-0.6-3.4C496,0,507,0,518,0z"/>
	<path class="st1" d="M0,663c8.1,6.2,16.3,12.4,24.4,18.6c5-19-5.2-38.1-24.4-45.6c0-3,0-6,0-9c17.6,10.3,27.2,25.9,27.7,46.1
		c0.6,20.5-8.3,36.6-25.4,48c-0.7,0.4-1.5,0.6-2.3,0.9c0-1,0-2,0-3c9.6-4.3,15.7-12.1,19.9-21.2c6.1-13.4,5.8-10.8-4.2-19.7
		c-4.7-4.2-10.4-7.4-15.7-11C0,665.7,0,664.3,0,663z"/>
	<path class="st1" d="M0,163c8.1,6.2,16.3,12.4,24.4,18.5c5.1-18.7-5.2-38.1-24.4-45.5c0-3,0-6,0-9c17.7,10.3,27.2,25.9,27.7,46.1
		c0.5,20.7-8.4,36.9-25.9,48.3c-0.5,0.3-1.2,0.4-1.8,0.6c0-1,0-2,0-3c10.2-4.7,16.2-13.3,20.8-23c4.4-9.3,4.3-10.1-3.6-16.7
		C11.8,174.9,5.8,171.1,0,167C0,165.7,0,164.3,0,163z"/>
	<path class="st1" d="M0,785c1.3-0.3,2.7-0.6,4-0.9c-0.1,1.5-0.3,3-0.5,5.2c2.4,2.1,5.3,4.8,8.6,7.6c0.8-0.1,2.4-0.3,3.9-0.5
		c-0.4,1.3-1,2.6-1,3.9c0.1,1.2,0.8,2.4,1.4,3.4c1.5,2.4,3.2,4.7,4.7,6.8c1.9-0.1,3.6-0.2,6.4-0.3c-1.8,2.4-2.8,3.6-3.7,4.9
		c1.5,3.5,3,7,4.6,10.5c0.4,0.8,1,1.7,1.8,2.1c1.1,0.6,2.5,0.8,3.7,1.1c-0.9,1.2-1.9,2.4-2.9,3.8c0.7,2.7,1.4,5.7,2.1,8.5
		c0.2,0.6,0.3,1.4,0.6,1.9c2,2.9,2,4.7-0.4,8.8c-2.3-1.4-4.7-2.7-7.7-4.5c1.5-1.1,2.7-2.1,4.4-3.3c-0.8-3.3-1.6-6.8-2.4-9.9
		c-2.1-0.8-3.8-1.4-5.4-2c1-1.1,2-2.3,3.3-3.8c-1.6-3.5-3.2-7.3-4.8-10.7c-1.9-0.2-3.4-0.4-4.9-0.5c0.5-1.4,1.1-2.8,1.9-4.8
		c-1.7-2.5-3.7-5.5-5.6-8.2c-2.1,0.1-3.7,0.2-5.4,0.3c0.3-1.4,0.7-2.9,1.2-5.5c-2.2-1.9-5.1-4.5-8-7C0,789.7,0,787.3,0,785z"/>
	<path class="st1" d="M0,285c1.3-0.3,2.6-0.6,4-0.9c-0.1,1.5-0.2,2.9-0.3,5.4c2.2,1.9,5.2,4.4,8.7,7.4c0.5-0.1,2-0.3,3.5-0.6
		c-0.3,1.3-0.8,2.5-0.8,3.8c0,1,0.4,2.2,0.9,3c1.6,2.5,3.4,5,5.1,7.5c1.7-0.2,3.4-0.3,6.5-0.6c-7.2,7.7,1.3,11.9,1.3,17.3
		c2,0.5,3.4,0.9,4.9,1.3c-0.7,1.3-1.5,2.6-2.7,4.6c0.5,2.1,1.2,5.2,2,8.2c0.2,0.8,0.5,2.2,0.9,2.2c6.8,1.1,3,2.7,1,5.7
		c-1.9,2.8-1.9,4.1-4.3,0.7c-0.7-1-2.8-1.1-5.2-2c1.6-1.5,2.9-2.6,4.5-4c-0.8-3.2-1.7-6.7-2.5-10c-2-0.5-3.5-0.9-5.1-1.3
		c0.9-1.3,1.8-2.7,3-4.6c-1.4-3.2-3.1-7-4.6-10.3c-2-0.2-3.5-0.4-5-0.6c0.6-1.4,1.2-2.8,1.9-4.7c-1.8-2.6-3.8-5.6-5.5-8
		c-2.2,0-3.9,0-5.5,0c0.3-1.4,0.7-2.9,1.3-5.5c-2.2-1.9-5.1-4.5-8-7C0,289.7,0,287.3,0,285z"/>
	<path class="st1" d="M23.1,34.1c-2.6-3.7-5.7-7.2-7.8-11.2c-2.3-4.2-5.1-6.1-9.9-5.3C3.6,17.9,1.8,17.9,0,18C0,12,0,6,0,0
		c6,0,12,0,18,0c-1.2,4.1-2.1,8.3-3.6,12.3c-1.3,3.3-1,5.8,1,8.7C18.2,25.2,20.5,29.7,23.1,34.1z"/>
	<path class="st1" d="M1000,292c-1.3,0.5-2.5,1-3.8,1.5c0.1-1.3,0.2-2.5,0.3-3.8c0-0.5,0.1-0.9,0.1-1.4c-0.1-1.2-0.3-2.5-0.4-3.7
		c1.3,0.4,2.6,0.9,3.9,1.3C1000,288,1000,290,1000,292z"/>
	<path class="st1" d="M1000,792c-1.3,0.5-2.5,1-3.8,1.5c0.1-1.3,0.2-2.5,0.3-3.8c0-0.5,0.1-0.9,0.1-1.4c-0.1-1.2-0.3-2.5-0.4-3.7
		c1.3,0.4,2.6,0.9,3.9,1.3C1000,788,1000,790,1000,792z"/>
	<path class="st1" d="M885.2,637.4c-0.2,30.5-24.9,54.8-55.4,54.5c-30.2-0.3-54.6-25.1-54.4-55.1c0.2-30.5,24.8-54.9,55.3-54.7
		C861.2,582.2,885.5,606.9,885.2,637.4z M811.9,606.9c-2.4-0.8-2.5-4.8-6.6-3.8c-9.6,2.3-17.9,5.7-20.6,16.4c-0.3,1.3-1,2.5-1.8,3.6
		c-2.8,3.7-1.9,6.5,1.1,9.9c7.9,9.1,7.8,9.3,19.3,5.3c2.6-0.9,6.4-1.5,7.4-3.4c3-5.5,5.8-11.4,6.8-17.5c0.5-2.7-3.4-6.1-5.3-9.1
		c-0.2-0.4-0.3-0.9-0.4-1.4c0.6,0.4,1.6,0.7,1.9,1.3c3.1,6.9,8.6,9,15.6,8.2c0.6-0.1,1.3,0.1,2,0.2c5.1,0.5,10.4,1.6,14.1-3.7
		c-1,2.8-3.2,5.9-2.8,8.5c2.9,16.8,3.1,16.7,18.8,23.8c0.5,0.2,0.9,0.6,1.3,0.6c1.6-0.2,3.6,0,4.6-0.9c12.1-11.2,12.1-11.2,5.5-26.4
		c-0.8-1.8-1.6-3.7-2.4-5.5c-0.4-0.9-0.9-2.2-1.6-2.4c-5.4-1.8-10.7-4.1-16.3-4.6c-2-0.2-4.4,4.3-6.6,6.7c-0.2,0.2-0.6,0.2-0.9,0.4
		c1.3-2.2,2.8-4.3,3.9-6.7c0.6-1.3,1.1-3.2,0.6-4.4c-5.6-12.8-5.7-12.8-19.4-13.3c-2.2-0.1-4.3-0.3-6.5-0.2
		c-1.2,0.1-2.8,0.3-3.6,1.1c-3.8,3.8-7.4,7.9-10.7,11.5C810.3,603.4,811.1,605.2,811.9,606.9z M794.9,667.8c1,0.6,2.2,0.9,2.9,1.8
		c6.9,9.1,15.4,9,24.9,4.7c2.3-1.1,3.4-1.9,3.4-4.5c-0.1-5.5,0.3-11,0.3-16.5c0-1.3-0.4-3-1.3-4c-11-11.9-14.1-12.7-29-7.2
		c-0.6,0.2-1.3,0.4-1.8,0.7c-0.6,0.4-1.7,1-1.7,1.6c-0.3,8-6.8,16.6,2.5,23.5c-3-1.9-6.1-3.8-10.1-6.2c5.2,11,17.5,21.5,26.8,22.8
		c-2.3-2.6-3.9-4.6-5.8-6.4C802.3,674.6,798.6,671.2,794.9,667.8z M848.1,679.7c-1.9,2.3-3.8,4.6-6.1,7.4
		c11.4-1.1,26.2-11.2,30.5-21c-2.8,1.3-4.9,2-6.8,3.1c-5.9,3.5-11.8,7.1-17.7,10.6c2.9-2.1,5.6-4.8,8.8-6.2c7.8-3.5,10-8.8,9-17.4
		c-0.7-6.1-2.8-8.7-8-11.7c-8.7-5.1-15.1-3.7-22.8,1.8c-5,3.6-6.6,7-7.5,12.9c-1.7,11,2.1,16.9,12.4,19.3
		C842.6,679.2,845.4,679.4,848.1,679.7z M882.1,634.7c0.3-11.4-5.7-26.2-11.6-29.6C870.1,609.9,876.6,626.8,882.1,634.7z
		 M842.9,587.1c0-0.4,0-0.9,0.1-1.3c-7.8,0-15.6,0-23.4,0c0,0.4,0,0.9,0,1.3C827.3,587.1,835.1,587.1,842.9,587.1z M790.1,605.6
		c-0.5-0.2-1-0.5-1.5-0.7c-3,6.1-6,12.3-9,18.4c0.5,0.2,0.9,0.5,1.4,0.7C784,617.8,787,611.7,790.1,605.6z"/>
	<path class="st1" d="M258.1,430.2c-30.6,0-55.1-24.3-55.1-54.8c0-30.4,24.6-55.1,55-55c30.2,0.1,54.8,24.6,54.9,54.7
		C313,405.6,288.5,430.2,258.1,430.2z M230.9,392.2c1-1,2.1-1.9,2.9-3.1c1.2-1.9,2.8-4,3.1-6.1c0.7-4.7,1-9.6,0.8-14.4
		c-0.1-1.9-1.1-4.5-2.6-5.7c-10-7.9-10.1-7.8-21-1.4c-0.9,0.5-1.9,0.8-2.5,1.5c-0.7,0.8-1.6,1.8-1.6,2.8c-0.3,5.8-0.5,11.6-0.4,17.4
		c0,1.2,0.7,2.6,1.6,3.4c3.7,3.6,7.6,6.9,11.2,10.3c3.1-1.7,5.9-3.3,8.8-4.8c-8.8,4.5-6.6,11.1-3.6,18c0.1,0.3,0.3,0.6,0.3,0.9
		c0.4,3.7,2.9,5.6,6.1,7c3.9,1.7,7.5,3.9,11.2,6c-3.2-1.2-6.4-2.4-9.5-3.8c-3-1.3-5.9-2.8-8.8-4.1c-0.2,0.5-0.5,1-0.7,1.6
		c6.3,3,12.5,6,19.5,9.3c-0.4-1.9-0.6-2.5-0.7-3.1c2.1,0.2,4.9,1.4,6.3,0.5c3.9-2.5,7.3-5.7,10.7-8.8c0.6-0.6,1.3-1.9,1.1-2.5
		c-3.5-8.2-2.9-18.7-15.1-21.5C241.8,390,236.4,387.1,230.9,392.2z M292.6,406.8c1.5-2.3,3-4.7,4.6-6.9c2-2.7-0.9-18.6-3.9-20.2
		c-0.8-0.4-2-0.3-2.9-0.4c-5.3-0.1-10.7-0.4-16-0.2c-1.6,0.1-3.6,0.9-4.6,2.1c-3.4,3.7-6.4,7.6-9.5,11.6c-2.2,2.7,2.5,20,5.8,20.3
		c7.7,0.7,16,6.2,23-1.9c-1.8,2.8-3.6,5.5-5.4,8.3c10.9-5.3,18.1-13.6,22.5-24.2c-0.5-0.4-0.9-0.8-1.4-1.2
		C300.7,398.3,296.7,402.5,292.6,406.8z M283.2,378.1c2.7,0,5.4,0.2,8-0.1c1.4-0.2,3.1-1.1,3.7-2.3c8-14.2,7.9-14.2-1.1-27.7
		c-0.3-0.4-0.6-0.8-0.8-1.2c-2.5-6.1-7-7.1-13.4-7.1c-7.9,0-11.8,2.7-15.1,10c-3.4,7.5-2.8,12.6,1.6,19.3
		C270.5,375.7,274.8,380,283.2,378.1z M239.6,364.3c2.8-0.7,4.7-1.5,6.6-1.7c9.9-0.8,15.5-6.1,18.7-15.5c1.7-5.1,1.4-7.6-2.3-11.8
		c-6.6-7.4-12.4-8-21.2-3.6c-7.6,3.7-11.9,7.9-13.8,16.2c-1.2,5.3-0.7,8.2,4,10.8C234.6,360.3,237.2,362.6,239.6,364.3z M288,332.8
		c-0.1,6.4,14.8,27.8,20.4,29.4C305.1,349.8,298.4,340.3,288,332.8z M255.2,323.3c-11.7,0.9-21.4,4.5-30.6,12
		C230.3,336,249.4,328.3,255.2,323.3z M208,363.3c-2.5,7.7-2.9,15.5,0,23.3C208,378.9,208,371.1,208,363.3z"/>
	<path class="st1" d="M385.3,637.5c-0.4,30.6-25,54.7-55.5,54.4c-30.1-0.3-54.6-25.2-54.3-55.2c0.3-30.7,25.2-55,55.9-54.6
		C361.5,582.5,385.7,607.3,385.3,637.5z M311.9,606.9c-2.9-4.4-6.4-3.5-10.9-2.5c-7.9,1.7-13.1,5.6-15.5,13.3
		c-0.7,2.3-2,4.6-3.3,6.7c-1.8,2.8-1.3,4.9,0.8,7.4c8.7,10.3,8.6,10.4,21.7,6c2.1-0.7,5.2-1.3,6-2.9c2.8-5.6,5.7-11.5,6.8-17.6
		c0.5-2.7-3.4-6.1-5.3-9.2c-0.2-0.4-0.3-0.9-0.4-1.4c0.7,0.6,1.8,1,2.2,1.7c2.9,6.1,7.7,8.6,14.4,7.8c1.1-0.1,2.3,0.1,3.5,0.3
		c5.1,0.7,10.1,1.4,13.6-3.7c-3.6,4.4-2.5,9.1-1.7,14.3c1.3,8.8,5.7,13.5,13.9,16.4c8.1,2.8,7.5,3,13.9-2.8
		c5.8-5.3,8.6-10.5,3.5-17.6c-0.3-0.4-0.2-1-0.2-1.4c2.2,4,4.5,8.1,6.7,12.1c0.5-11.3-3.5-20.7-10.9-28.9c-0.2,2.7,0.3,5.2,1.1,7.7
		c1,3.1,2.1,6.2,3.2,9.2c-0.9-1.7-1.9-3.4-2.8-5.1c-1.2-2.1-1.8-5.5-3.6-6.2c-5.1-2.2-10.6-4.1-16-4.5c-2-0.1-4.3,4.3-6.5,6.7
		c-0.2,0.2-0.6,0.2-0.9,0.4c6.9-7.4,4.1-14.3-1.1-21c-0.3-0.4-0.4-1-0.8-1.2c-1-0.7-2.1-1.7-3.2-1.8c-5.6-0.4-11.3-0.5-16.9-0.6
		c-1.1,0-2.4,0.4-3.1,1.1c-3.8,3.9-7.3,7.9-10.7,11.6C310.3,603.4,311.1,605.2,311.9,606.9z M300.5,672.8c7,7.5,14.6,4,22.1,1.3
		c0.2-0.1,0.4,0,0.5-0.1c1-1.3,2.7-2.5,2.8-3.8c0.5-5.6,0.6-11.3,0.6-17c0-1.3-0.5-3-1.4-3.9c-8.1-8.5-16.8-15.2-29-7.1
		c-0.5,0.4-1.3,0.4-1.8,0.8c-0.6,0.4-1.5,1-1.6,1.6c-1,5.7-2.4,11.5-2.4,17.3c0,2.2,3.7,4.3,5.6,6.5c-3.3-1.9-6.6-3.9-9.9-5.8
		c5.4,10.8,13.6,18.1,24.6,22.1c-0.7-1.9-1.6-3.6-2.9-5C305.4,677.2,302.9,675.1,300.5,672.8z M348.2,679.7
		c-1.9,2.3-3.8,4.6-5.7,6.9c12.9-2.2,22.6-8.7,29.6-19.5c-2.3,0.3-4.4,1.1-6.3,2.2c-5.9,3.5-11.8,7.1-17.7,10.6
		c3.1-2.2,5.8-5,9.2-6.5c7.6-3.3,9.2-8.6,8.6-16.6c-0.5-6.5-2.8-9.4-8.5-12.4c-8.1-4.3-14.2-4.1-21.5,1.5c-4.8,3.7-8.5,6.4-8.2,13.5
		c0.5,13.6-0.2,13.7,12.4,19.2C342.4,679.6,345.4,679.4,348.2,679.7z M319.5,587.1c7.8,0,15.6,0,23.4,0
		C335.2,584.6,327.4,584.1,319.5,587.1z M290,605.8c-0.5-0.3-1-0.7-1.4-1c-3.1,6.2-6.1,12.4-9.2,18.6c0.5,0.2,0.9,0.5,1.4,0.7
		C283.9,618,286.9,611.9,290,605.8z"/>
	<path class="st1" d="M885.3,136.7c0.1,30.6-24.3,55.1-54.7,55.2c-30.4,0-55.1-24.6-55.1-54.9c0.1-30.2,24.5-54.8,54.6-54.9
		C860.6,82,885.2,106.3,885.3,136.7z M811.9,106.9c-2.8-4.4-6.4-3.4-10.9-2.5c-8,1.6-12.9,5.8-15.5,13.3c-0.8,2.3-2,4.6-3.3,6.7
		c-1.8,2.8-1.4,4.8,0.8,7.4c8.7,10.3,8.6,10.5,21.7,6c2.1-0.7,5.2-1.4,6-3c2.8-5.6,5.7-11.5,6.8-17.6c0.5-2.6-3.4-6.1-5.3-9.2
		c-0.2-0.4-0.3-0.9-0.4-1.4c1.6,1.8,3.1,3.6,4.8,5.4c1.2,1.3,2.5,3.4,3.8,3.5c7.6,0.5,15.1,0.5,22.7,0.6c-0.3,1.6-1,3.2-0.7,4.7
		c2.8,16.7,2.9,16.7,18.1,23.7c0.8,0.3,1.5,1,2.2,1c1.6-0.1,3.6,0,4.6-0.9c3.9-3.8,9.5-7.5,10.5-12.1c0.9-4.3-3.2-9.7-5.2-14.5
		c-0.7-1.7-1.4-3.4-2.2-5c-0.4-0.9-0.8-2.2-1.5-2.5c-5.5-1.8-11-4-16.7-4.6c-1.8-0.2-4,4.2-6.1,6.5c-0.4,0.5-1,0.9-1.5,1.3
		c0.1-0.6,0.1-1.6,0.5-1.9c7.1-6.1,4.4-12-0.1-18c-0.6-0.8-0.8-1.9-1.5-2.6c-1.1-1-2.5-2.2-3.9-2.3c-5.5-0.4-11-0.5-16.5-0.6
		c-1.1,0-2.4,0.3-3.1,1.1c-3.8,3.9-7.4,7.9-10.8,11.6C810.3,103.4,811.1,105.2,811.9,106.9z M801.3,173c3.9,1.8,6.2,6.3,12.2,4.1
		c12.2-4.4,12.4-3.9,12.7-17.2c0.1-3.1,1.3-7.4-0.2-9.2c-4.4-4.9-9.9-8.8-15-13c-0.4-0.3-1.3-0.2-1.9,0c-5,1.7-10.1,3.3-15.1,5.1
		c-0.7,0.2-1.5,1-1.6,1.7c-1,5.7-2.4,11.5-2.3,17.2c0,2.2,3.7,4.3,5.6,6.5c-3.3-1.9-6.6-3.9-9.9-5.8c5.4,10.8,13.6,18,24.6,22.1
		c-1-2.2-2.4-4.1-4-5.8C804.9,176.8,803.1,174.9,801.3,173z M865.7,159.8c-0.7-11.6-0.7-11.6-10.5-16.1c-2.1-1-4.2-2.2-6.4-2.8
		c-1.5-0.4-3.6-0.5-4.9,0.2c-15.6,8.6-15.6,8.7-16.4,26.4c0,0.7-0.3,1.4,0,2c0.8,1.6,1.4,3.8,2.7,4.5c14.2,7.7,14.2,7.6,27.6-1.2
		c0.3-0.2,0.5-0.4,0.8-0.5C864.6,169.6,867.9,165.6,865.7,159.8z M841.6,187.1c10,0.1,28.8-12.8,30.6-21.4
		C861.3,172.4,850.6,177.5,841.6,187.1z M870.5,105.1c0.7,10.8,7.1,19.5,11.1,30.7C882.9,125.6,878.2,112.8,870.5,105.1z M843,87.2
		c0-0.5,0-0.9,0-1.4c-7.8,0-15.6,0-23.4,0c0,0.5,0,0.9,0,1.4C827.3,87.2,835.2,87.2,843,87.2z M779.4,123.3c0.5,0.2,1,0.5,1.5,0.7
		c3-6.1,6.1-12.3,9.1-18.4c-0.5-0.2-1-0.5-1.5-0.7C785.5,111,782.5,117.2,779.4,123.3z"/>
	<path class="st1" d="M758.2,930.2c-30.6,0.1-55.1-24.2-55.2-54.7c0-30.5,24.6-55.2,54.9-55.1c30.2,0.1,54.9,24.5,55,54.6
		C813,905.5,788.7,930.1,758.2,930.2z M723.7,897.4c3.4-2.8,6.9-5.5,10.2-8.4c1.2-1,2.7-2.4,2.8-3.7c0.5-7.1,0.6-14.3,0.8-21.4
		c2.3-0.3,4.5-0.6,6.8-0.8c11.2-0.8,17.8-6.6,21-17.5c1.2-4.1,0.7-6-1.9-9.3c-7-8.9-14-9.1-23.6-3.9c-6.2,3.3-10,6.7-11.8,13.6
		c-1.5,5.7-2,10,3.7,13.3c-1.1-0.4-2.4-0.6-3.1-1.3c-2.6-2.5-4.8-1.8-7.9-0.5c-8.7,3.5-12.7,9.1-11.1,18.6c0.4,2.1-0.2,4.3-0.1,6.5
		c0,1.1,0.1,2.6,0.8,3.2c4.4,3.9,9,7.7,13.6,11.5c1.4,4.7,2.4,9.6,4.2,14.2c0.9,2.3,3,4.5,5.1,5.9c3.8,2.5,8,4.4,12,6.6
		c-6.1-2.5-12.3-5.1-18.4-7.6c-0.2,0.4-0.4,0.8-0.5,1.2c6.3,3,12.6,6,19.5,9.3c-0.4-1.9-0.5-2.5-0.7-3.1c4,2.3,6.9,0.5,10-2.2
		c8.6-7.5,8.7-7.4,4.9-18.2c-1-2.8-1.5-6.8-3.6-7.9c-5.5-3.1-11.6-5-17.5-7.1c-0.9-0.3-2.4,0.7-3.5,1.4
		C731.4,892.2,727.6,894.8,723.7,897.4z M797.6,900.8c1.9-3.5,1.1-6.8-0.1-10.4c-3.6-11.1-3.6-10.5-14.9-11.5
		c-8.5-0.8-13.6,2.2-18.7,8.7c-4.3,5.5-5.1,9.8-2.9,16.4c2.3,7,5.7,9.7,13,10.7c7,1,12.2,0.6,15.8-6c0.8-1.4,2.2-2.4,3.4-3.6
		c-3.2,4.8-6.4,9.5-10.4,15.4c11.1-5.3,22-18.3,22.4-26.8C802.5,896.5,800,898.6,797.6,900.8z M782.6,878c2.3,0,4.7-0.2,7,0.1
		c3.1,0.3,4.4-1,6.1-3.6c6.3-9.7,5.6-17.9-1.9-27.1c-4.4-5.5-8-8-15.2-7.7c-7.4,0.3-10.7,2.8-13.9,9.4c-3.7,7.7-3.4,13.2,1.6,20.2
		C770.7,875.4,774.5,880,782.6,878z M807.5,862.3c-2.6-12.4-9.1-22.1-19.8-28.7C792.7,844.3,798.5,854.5,807.5,862.3z M754.8,824.3
		c-9.5-1.2-23.9,4.5-30.1,12.2C736.4,834.4,745.2,828.4,754.8,824.3z M706.8,886.5c0.4,0,0.8,0,1.2,0c0-7.7,0-15.4,0-23.2
		c-0.4,0-0.8,0-1.2,0C706.8,871.1,706.8,878.8,706.8,886.5z"/>
	<path class="st1" d="M500.2,451.9c30.4,0.1,54.9,24.8,54.7,55.2c-0.1,30.1-24.8,54.6-54.9,54.7c-30.5,0-55.2-24.9-55-55.6
		C445.3,476.1,470,451.8,500.2,451.9z M532.6,469.9c1.7,0.7,3.5,1.3,5.2,2c0.3-0.4,0.5-0.9,0.8-1.3c-6.4-4.3-12.8-8.6-19.2-13
		c-0.3,0.4-0.6,0.9-0.9,1.3c0.8,0.8,1.5,1.7,2.3,2.5c-6.4,1.2-12.8,2.3-19,3.4c-0.9,17.1-0.9,17.1,11.5,26.4
		c1.5,1.1,2.9,2.2,4.4,3.3c0.8,0.5,1.9,1.5,2.6,1.2c4.7-1.6,9.7-2.9,13.8-5.4c1.6-1,1.3-5.1,1.5-7.9
		C536,477.9,537.4,473.1,532.6,469.9z M500.5,551.9c2.3,0,4.7-0.3,7,0.1c4.3,0.6,6.1-1.8,8.6-4.9c6.7-8.2,6.4-15.3-0.3-23.5
		c-3.2-4-6-5.6-11.1-6.3c-10.7-1.4-17.6,1.9-22.9,11.5c-2.7,5-3.1,8-0.2,13C486.1,549.6,491,554.5,500.5,551.9z M465.4,491.6
		c-1.8,1.8-3.9,4.3-6.5,6.4c-6.3,5-7.1,10.4-4.3,18.1c4.9,13.6,4.3,13.8,18.2,17.6c0.3,0.1,0.7,0.3,0.9,0.3c1.4-0.4,3.3-0.5,4.2-1.4
		c11.9-13.8,12.2-15.3,6.4-32.7c-0.2-0.5-0.1-1.1-0.4-1.4c-0.8-0.9-1.6-2.2-2.6-2.5C476.5,494.4,471.7,493.2,465.4,491.6z
		 M546.9,506.8c-0.2-0.4-0.5-1.7-1.3-2.7c-2.9-3.6-5.9-7.2-9.1-10.6c-0.8-0.8-2.6-1.1-3.8-0.9c-8.9,2-16.2,5.7-17.3,16.1
		c-0.2,1.9-1.4,3.8-1.8,5.7c-0.3,1.2-0.4,2.7,0.1,3.7c7.2,15.8,8.9,16.6,25.5,12.1c0.3-0.1,0.8,0,1-0.2c1.1-1,2.7-2,3-3.2
		C544.7,520.6,545.6,514.2,546.9,506.8z M500.1,475.3c0-2.6,0.3-5-0.1-7.3c-0.2-1.1-1.3-2.6-2.4-3c-9-3.6-18-6-26.2,2
		c-0.1,0.1-0.3,0.2-0.4,0.2c-6.9,2.6-9.2,6.9-7.5,14.5c1.8,8.2,1.4,7.6,9.2,10.6c8.3,3.1,14.6,1.4,21.2-4.1
		C498.4,484.5,502.7,481.7,500.1,475.3z M518.2,554.7c-11.7-1.9-23.4-2.6-35,0.6C494.9,560.2,506.6,560,518.2,554.7z M457.4,535.5
		c-0.7-11.1-4.5-21.3-8.8-31.4C447.3,515.8,450.3,526.2,457.4,535.5z M543.5,533.7c6.9-7.9,10.5-24.5,7.2-32.4
		C546.1,511.7,546.3,522.3,543.5,533.7z M482.5,459c-0.2-0.6-0.3-1.1-0.5-1.7c-5.4,3.2-10.9,6.3-16.3,9.5c0.3,0.5,0.6,1,0.8,1.5
		C471.9,465.1,477.2,462.1,482.5,459z"/>
	<path class="st1" d="M258.1,930.2c-30.6,0-55-24.4-55-54.8c0-30.4,24.7-55.1,55-55c30.2,0.1,54.7,24.6,54.8,54.7
		C313,905.6,288.5,930.2,258.1,930.2z M244.9,923.7c2.1,0.2,4.9,1.4,6.3,0.5c3.9-2.5,7.3-5.8,10.8-8.8c0.6-0.6,1.3-1.9,1.1-2.5
		c-3.4-8.2-3.1-18.6-15.2-21.6c-6.5-1.6-12-4.2-17.4,1.6c1.2-1.3,2.3-2.6,3.5-3.9c0.9-0.9,2.6-1.8,2.7-2.7
		c0.6-6.8,1.5-13.6,0.9-20.3c-0.2-2.2-4.2-4.2-6.4-6.3c-0.2-0.2-0.2-0.6-0.3-0.9c1.7,1,3.5,1.8,5,3c2.4,2,4.6,2.4,7.7,1.5
		c16-4.4,16.1-4.3,22.3-19.8c0.6-1.5,0.1-4.3-1-5.4c-3.8-3.9-7.7-9.3-12.3-10.3c-4.1-0.9-9.3,3.4-14,5.4c-0.6,0.3-1.2,0.7-1.8,0.8
		c-6.5,1.2-6.8,6.7-8.4,11.5c-1.8,5.2-3.3,9.9,2.7,13.4c-5.5-5-10.3-2-15.1,1.4c-1.1,0.8-2.6,1.1-3.4,2c-1.2,1.4-2.5,3-2.7,4.7
		c-0.5,5.1-0.5,10.3-0.5,15.4c0,1.3,0.5,3.1,1.4,4c3.3,3.3,6.7,6.4,10.3,9.3c0.7,0.6,2.3,0.2,3.5,0.3c1.2,5.6,2.2,11.2,3.8,16.6
		c0.5,1.6,2.1,3.3,3.7,4.2c4.2,2.5,8.6,4.7,13,7c-6.1-2.5-12.2-5-18.3-7.5c-0.2,0.4-0.4,0.8-0.6,1.3c6.3,3,12.5,5.9,19.5,9.2
		C245.2,925,245,924.4,244.9,923.7z M289,911.3c-1.8,2.7-3.5,5.4-5.3,8.1c10.8-5.3,18-13.5,22.4-24.1c-0.3-0.4-0.7-0.7-1-1.1
		c-2.5,2.2-4.9,4.4-7.4,6.5c0.3-2.4,1.4-4.9,0.8-7c-3.8-14.5-3.9-14.5-18.8-14.7c-1.3,0-2.7,0-4,0c-4,0-16.9,13.1-16.8,17
		c0,0.2,0,0.3,0.1,0.5c1.7,5,3.4,10.1,5.3,15.1c0.2,0.6,1.1,1.5,1.7,1.5C273.7,913.4,281.9,919.3,289,911.3z M279.6,840.4
		c-8.8-2.5-12.9,2.1-15,9.8c-0.7,2.4-2.3,4.5-2.9,6.9c-0.4,1.5-0.3,3.6,0.4,5c9.2,16,9.2,15.9,27.5,16c0.3,0,0.7,0.1,1,0
		c1.5-0.9,3.7-1.5,4.4-2.8c7.5-14.2,7.4-14.3-1.5-27.6c-0.2-0.3-0.4-0.5-0.5-0.8C290.3,840.9,286.3,837.8,279.6,840.4z M288.1,832.8
		c-0.2,6.2,14.6,27.6,20.4,29.6C305.1,850,298.5,840.3,288.1,832.8z M225.7,835.4c10.8-0.8,19.5-7.1,29-11.3
		C243.6,824,233.9,827.8,225.7,835.4z M206.8,886.6c0.4,0,0.7,0,1.1,0c0-7.7,0-15.4,0-23.1c-0.4,0-0.7,0-1.1,0
		C206.8,871.2,206.8,878.9,206.8,886.6z"/>
	<path class="st1" d="M385.3,136.8c0,30.5-24.4,55.1-54.8,55.1c-30.2,0-54.8-24.4-55-54.5c-0.1-30.5,24.3-55.3,54.6-55.3
		C360.7,82,385.2,106.4,385.3,136.8z M311.9,107c-2.5-0.8-2.5-4.9-6.6-3.8c-9.6,2.4-18,5.6-20.7,16.4c-0.3,1.3-1,2.5-1.8,3.6
		c-2.8,3.7-2,6.5,1,9.9c8,9.1,7.8,9.2,19.3,5.3c2.6-0.9,6.4-1.5,7.4-3.4c3-5.5,5.8-11.4,6.8-17.5c0.5-2.7-3.4-6.1-5.3-9.2
		c-0.2-0.4-0.3-0.9-0.4-1.4c1.4,1.5,2.8,3,4.2,4.6c1.3,1.4,2.5,4.1,3.9,4.2c7.5,0.6,15.1,0.5,22.6,0.6c-0.1,1.3-0.5,2.7-0.3,3.9
		c1.9,10.9,3.9,21.7,17.5,24.2c1.1,0.2,2.1,1.3,3.1,1.4c1.5,0,3.6,0,4.6-0.9c12-11.3,12-11.3,5.5-26.3c-0.8-1.8-1.6-3.7-2.4-5.4
		c-0.4-0.9-0.8-2.2-1.5-2.4c-5.5-1.8-11-4-16.7-4.6c-1.8-0.2-4,4.3-6.1,6.6c-0.4,0.5-1,0.9-1.5,1.3c1.4-2.4,3-4.7,4.1-7.2
		c0.6-1.4,1.2-3.5,0.6-4.8c-1.7-3.8-3.9-7.4-6.1-10.9c-0.7-1-2.3-1.9-3.5-2c-5.5-0.4-11-0.5-16.5-0.6c-1.1,0-2.5,0.3-3.2,1
		c-3.8,3.9-7.4,7.9-10.8,11.6C310.3,103.4,311.1,105.2,311.9,107z M300.5,172.8c6.9,7.9,14.6,3.7,22.1,1.4c0.2,0,0.4,0,0.5-0.1
		c1-1.3,2.7-2.5,2.8-3.8c0.5-5.6,0.6-11.3,0.6-17c0-1.3-0.5-3-1.4-3.9c-11.4-12.1-13.8-12.6-29-7.1c-0.6,0.2-1.3,0.4-1.8,0.8
		c-0.6,0.4-1.5,1-1.6,1.6c-1,5.7-2.4,11.5-2.4,17.2c0,2.2,3.6,4.3,5.6,6.5c-3.3-2-6.5-4-9.8-6c5.2,10.9,13.4,18.2,24.5,22.3
		c-0.7-1.9-1.6-3.6-2.9-5C305.4,177.2,302.9,175,300.5,172.8z M348.1,179.9c-1.8,2.2-3.7,4.4-5.5,6.7c0.3,0.3,0.7,0.6,1,1
		c11.9-3.2,21.6-9.7,28.4-20.8c-2.4,0.8-4.7,1.6-7.1,2.4c0.2-4.1,0.2-8.2,0.6-12.2c0.8-6.7-2.5-9.5-8.2-12.5
		c-8.1-4.3-14.1-4-21.5,1.4c-5.4,4-8.5,7.3-8.3,14.5c0.4,12.5-0.2,12.7,11.4,17.8C341.7,179.3,345,179.3,348.1,179.9z M381.7,134.2
		c0.1-11.2-3.6-20.9-11.1-29.2C371.4,115.8,377.6,124.6,381.7,134.2z M319.6,85.8c0,0.5,0.1,0.9,0.1,1.4c7.7,0,15.5,0,23.2,0
		c0-0.5,0-0.9,0-1.4C335.2,85.8,327.4,85.8,319.6,85.8z M290,105.7c-0.5-0.3-1-0.6-1.6-0.8c-3,6.2-6,12.4-9,18.6
		c0.5,0.2,0.9,0.5,1.4,0.7C283.9,118,287,111.8,290,105.7z"/>
	<path class="st1" d="M757.8,430.2c-30.5-0.1-54.9-24.6-54.7-55.1c0.1-30.2,24.6-54.6,54.8-54.7c30.3-0.1,55.1,24.7,55,55
		C812.8,405.9,788.3,430.3,757.8,430.2z M730.4,393c1.3-1.4,2.7-2.7,3.9-4.2c1-1.2,2.5-2.5,2.6-3.8c0.5-7,0.6-14.1,0.8-21.2
		c2.1-0.2,4.2-0.5,6.3-0.7c11.5-0.8,18.5-6.7,21.7-18c1.1-3.8,1.3-5.9-1.9-8.4c-3.8-2.9-6.9-8.1-11-8.9c-3.8-0.7-8.3,3.6-12.7,4.8
		c-7.1,2-10.1,6.5-12,13.4c-1.5,5.8-1.9,10,3.7,13.2c-0.9-0.3-2.1-0.4-2.7-1c-3-3.2-5.7-1.8-9.2-0.4c-8.2,3.4-11.8,8.8-10.3,17.6
		c0.2,1,0,2-0.1,3c-0.2,7,7.7,16.8,14.9,18.3c1.2,4.9,2,9.9,3.6,14.6c0.8,2.3,2.9,4.5,5,5.9c3.8,2.5,8,4.4,12,6.6
		c-6.1-2.5-12.3-5.1-18.4-7.6c-0.2,0.4-0.4,0.8-0.5,1.2c6.3,3,12.6,6,19.5,9.3c-0.4-1.9-0.5-2.5-0.7-3.1c2.1,0.2,4.9,1.4,6.3,0.5
		c3.9-2.5,7.3-5.8,10.8-8.8c0.6-0.6,1.3-1.9,1-2.5c-3.4-8.5-3.3-18.8-15.7-21.8C740.8,389.6,735.5,387.6,730.4,393z M797.6,400.8
		c2.7-4.1,0.6-7.9-0.6-11.8c-3-9.7-3.1-9-12.9-10c-9.3-1-15.5,1.8-20.8,9.6c-3.3,4.8-4.4,8.3-2.7,14.2c2.4,8.4,6.7,11.8,15.1,12.2
		c5,0.3,9.5,1.2,12.5-3.8c-1.5,2.8-3,5.5-4.5,8.3c10.7-5.3,17.8-13.6,22.3-24.2c-0.4-0.4-0.7-0.7-1.1-1.1
		C802.6,396.4,800.1,398.6,797.6,400.8z M782.8,378c2.2,0,4.4-0.2,6.5,0.1c3.6,0.5,4.9-1.4,6.7-4.2c6.4-9.7,4.7-17.7-2.3-26.6
		c-4.2-5.4-7.7-7.8-14.8-7.6c-7.6,0.3-11.1,2.8-14.3,9.7c-3.5,7.6-3.1,12.9,1.6,19.8C770.6,375.5,774.5,380.1,782.8,378z
		 M788.2,332.9c-0.4,5.9,14.3,27.5,20.3,29.5C805,350,798.5,340.4,788.2,332.9z M754.7,324c-11.1,0.2-21,3.6-29,11.5
		C736.5,334.5,745.2,328.4,754.7,324z M708,362.6c-2.9,7.9-2.9,18.8,0,24.4C708,378.8,708,371.1,708,362.6z"/>
	<path class="st1" d="M108.8,674.8c30.5,0.2,55,24.8,54.8,55.1c-0.2,30.4-25,54.9-55.2,54.8c-30.3-0.1-54.9-24.9-54.7-55.2
		C53.8,699.1,78.4,674.6,108.8,674.8z M122.1,679.3c-5.2-0.7-9.9-1.7-14.6-1.8c-1.8,0-4.3,1.7-5.2,3.3c-10.9,19.9-18,41-19.6,63.9
		c-0.7,9.9-0.5,10.2,9.6,11.4c3.5,0.4,5.1-0.2,6.1-4.2c4.4-16.7,9.1-33.3,14.2-49.8C114.9,694.7,118.5,687.7,122.1,679.3z
		 M99.9,757.2c6.7-1.9,12.2-3.4,17.7-4.9c4.7-1.3,6.7-4.1,7.4-9.2c2.3-16.4,6.1-32.3,14.8-46.7c0.6-1,0.4-3.5-0.4-4.2
		c-4.6-3.9-9.5-7.5-14.6-11.4C112.3,705.2,105.5,730.1,99.9,757.2z M78.4,752.5c2.5-13.7,3.8-26.3,7.2-38.4
		c3.5-12.2,9.1-23.7,14.1-36.1c-6.7,2-14.5,2.2-18.4,8.5c-9.4,15-15.6,31.2-16,49.2c0,2.3,0.7,5.1,2.2,6.7
		C70.5,745.9,74.4,748.9,78.4,752.5z M138.5,764.2c0-0.6,0-1.3-0.1-1.9c-3.2-2.7-6.4-5.2-9.5-8c-2.4-2.2-4.4-2.3-7.5-0.8
		c-19.8,9.7-44,7.4-57.8-11c-0.2-0.2-0.6-0.3-0.9-0.4c-4.5,3.5-3.9,9.8,1.4,14.4c16.3,14.3,35,19.3,56.2,14
		C126.6,768.8,132.5,766.3,138.5,764.2z M156.4,749.7c9.6-21.3,4.3-31.9-20.5-39.4c-1,3.1-1.9,6.3-3.2,9.3c-1.4,3.3-0.6,5.3,2.4,7.4
		c4.5,3.3,8.9,7,12.7,11.1C151,741.6,153.5,745.8,156.4,749.7z M146,766.7c2.3-3.2,5.3-7.4,8.2-11.6c0.4-0.7,0.5-2,0.2-2.7
		c-5.5-10.3-12.7-18.8-23.9-25c-1.2,6.9-2.6,13.3-3.4,19.6c-0.2,1.3,1.3,3.2,2.5,4.3C134.8,756.4,140.1,761.2,146,766.7z
		 M70.2,764.6c16.7,20.1,49.4,23.2,69.6,7.1c2.8-2.2,2.3-3.8,0.4-5.8C116.4,777,93.1,779.9,70.2,764.6z M59.5,742
		c1.1-2.8,2.9-5.5,3.1-8.4c1-14.3,4.8-27.8,11.8-40.4c0.6-1.1,1-2.4,2-4.6C59.9,701.7,51.7,726.3,59.5,742z M159.5,719.3
		c-1-12.1-7.2-21-16.6-22.6c-1.8,3.3-3.6,6.8-5.2,9.6C145.5,711,152.7,715.3,159.5,719.3z"/>
	<path class="st1" d="M53.6,229.3c0.4-30.8,25.1-54.9,55.9-54.4c30.1,0.4,54.4,25.3,54,55.4c-0.4,30.6-25.5,55.1-56,54.6
		C77.5,284.3,53.2,259.3,53.6,229.3z M122.7,179.1c-6.5-0.6-11.7-1.3-16.8-1.5c-1.1,0-2.8,1.6-3.5,2.9c-10.8,19.8-18,40.7-19.7,63.4
		c-0.7,10.4,0.6,12,11.2,12.3c2.4,0.1,3.6-0.5,4.1-3C103.4,228.2,110.1,203.7,122.7,179.1z M99.9,257.3c7-2,12.8-3.7,18.6-5.4
		c4.2-1.2,5.8-3.9,6.4-8.3c2.4-16.5,6.1-32.7,14.9-47.2c0.6-1,0.4-3.5-0.4-4.2c-4.6-3.9-9.5-7.5-14.6-11.4
		C112.3,205.1,105.6,230,99.9,257.3z M101.1,177.7c-8,2.1-15.7,2.4-19.5,8.4c-9.8,15.3-16.1,32.1-16.4,50.6c0,1.4,0.2,3.2,1,4.1
		c3.8,4,7.9,7.7,11.8,11.5c0.5-0.3,1.1-0.5,1.6-0.8C80.6,225.6,87.6,201.4,101.1,177.7z M139.7,263.4c-4.3-3.6-7.5-6.2-10.5-9
		c-2.5-2.3-4.6-2.5-7.9-0.9c-19.7,9.6-44.1,7.3-57.7-11.2c-0.2-0.2-0.6-0.2-0.9-0.3c-4.1,3.6-3.9,3.7-2.2,8.4
		c2.4,6.9,8.6,9.6,13.8,13.1C95.4,277.5,116.8,273.4,139.7,263.4z M135.9,209.9c-1.4,4.3-2.8,8.1-3.8,12.1c-0.3,1,0.3,2.8,1.1,3.4
		c9.5,6.4,17.4,14.2,23,24.9C165.3,229.2,162.4,219.2,135.9,209.9z M130.5,227.3c-1.2,6.3-2.1,11.9-3.3,17.3
		c-0.7,3.1,0.1,5.1,2.7,7.2c5.4,4.4,10.3,9.5,16,14.8c2.3-3.2,5.4-7.3,8.2-11.5c0.5-0.7,0.5-2.3,0-3.1
		C148.7,241.9,141.4,233.6,130.5,227.3z M139.9,265.8c-10.9,6.1-22.7,8.9-35.2,9.2c-12.7,0.3-24.1-3.1-35.4-11.7
		c0.9,1.8,1.1,2.3,1.4,2.6c17.3,18.8,48.7,21.5,68.8,6.1C142.1,270,142.5,268.3,139.9,265.8z M59.4,242c1.1-2.7,3-5.4,3.2-8.2
		c0.9-14.4,4.8-27.8,11.7-40.3c0.7-1.2,1.1-2.5,2-4.6C60.1,201.3,52,225.4,59.4,242z M160.1,219.7c-3.5-9.2-3.9-20.4-17.1-23.4
		c-2,3.6-3.8,7-5.4,10C145.4,210.9,152.6,215.2,160.1,219.7z"/>
	<path class="st1" d="M553.6,230c-0.1-30.5,24.2-55,54.7-55.2c30.4-0.2,55.2,24.3,55.3,54.6c0.1,30.3-24.5,55.2-54.7,55.3
		C578.5,284.9,553.7,260.3,553.6,230z M622.1,179.3c-5.2-0.7-10-1.6-14.8-1.8c-1.6,0-4,1.6-4.9,3.1c-10.9,19.9-18.1,41-19.7,63.8
		c-0.7,10-0.6,10.4,9.4,11.5c0.2,0,0.3,0,0.5,0c3.3,0.7,4.8-0.3,5.8-4c4.3-16.2,8.7-32.4,13.7-48.4
		C614.5,195.7,618.3,188.3,622.1,179.3z M624.8,180.8c-12.5,24.5-19.4,49.3-24.8,76.2c6.2-1.6,11.6-3,16.9-4.4
		c5.2-1.4,7.5-4.5,8.3-10.2c2.2-16,6.1-31.6,14.5-45.8c0.7-1.2,0.3-4.1-0.7-4.9C634.6,188,629.9,184.7,624.8,180.8z M578.3,252.6
		c2.6-14.1,4-27,7.5-39.2c3.5-12,9.1-23.4,14-35.7c-4.2,1.3-7.8,2.1-11.1,3.6c-2.6,1.2-5.9,2.6-7.3,4.8
		c-9.4,15.4-15.8,31.8-16.3,50.2c0,1.5,0.2,3.6,1.2,4.6C570,244.9,574,248.5,578.3,252.6z M639.6,263.4c-3.9-3.3-6.7-5.6-9.3-8.1
		c-3.1-2.9-5.7-3.5-10-1.4c-19.9,9.5-43.9,6-56.4-11.3c-0.2-0.3-0.8-0.4-1.2-0.6c-3.6,2.2-3.7,4.8-2.3,8.5
		c2.9,7.4,9.7,10.4,15.6,14.1C596.8,277.4,617.5,273.2,639.6,263.4z M656.4,249.6c9.6-21.2,4.2-31.9-20.6-39.3
		c-1.1,3.3-2,6.6-3.3,9.8c-1.2,3-0.5,4.7,2.2,6.6c4.3,3.1,8.5,6.4,12.1,10.3C650.4,240.8,653.2,245.4,656.4,249.6z M645.6,266.4
		c0,0,0.7-0.6,1.4-1.3c9.1-9.9,9.2-11.3,1.3-22.2c-4.6-6.4-10.6-11.1-17.8-15.8c-1.2,6.5-2.2,12-3.4,17.5c-0.7,3.1,0.2,5.1,2.7,7.2
		C635.3,256.3,640.1,261.2,645.6,266.4z M570.2,264.6c16.2,20.1,49.7,23.3,69.7,7.1c2.5-2.1,2.2-3.6,0.3-5.7
		C616.6,276.8,593.3,280.1,570.2,264.6z M559.5,242c1.1-2.8,3-5.5,3.2-8.3c0.9-14.5,5-28.1,12-40.8c0.6-1,0.9-2.2,1.6-4.1
		C559.9,201.6,551.8,226,559.5,242z M637.6,206.3c7.8,4.7,15,9,23.6,14.1c-3.2-7-5.8-13.3-9-19.2c-1.9-3.6-8.5-5.6-9.9-3.4
		C640.5,200.6,639,203.8,637.6,206.3z"/>
	<path class="st1" d="M553.6,729.1c0.5-30.8,25.3-54.7,56.1-54.2c30.1,0.5,54.4,25.6,53.8,55.6c-0.6,30.6-25.8,55-56.2,54.3
		C577.2,784.1,553.1,759.1,553.6,729.1z M622.6,679.3c-5.9-0.8-10.6-1.7-15.3-1.8c-1.6,0-4.1,1.5-4.9,3
		c-10.7,19.5-17.9,40-19.6,62.3c-0.9,11.9,0,13.1,12.1,13.3c0.6,0,1.3-0.1,2.4-0.3C603,730.1,609.7,704.6,622.6,679.3z M624.5,681.4
		c-12.1,23.7-19.1,48.7-24.5,75.7c6.7-1.9,12.3-3.5,18-5c4.6-1.2,6.4-4.2,7-8.9c1.9-13.9,5-27.5,11.3-40.1
		c5.4-10.8,5.3-11.3-5.1-17.9C629.2,683.9,626.9,682.8,624.5,681.4z M577.9,752.2c0.6-0.3,1.1-0.6,1.7-0.9c0.9-25.9,8-50,21.4-73.6
		c-8.1,2.1-15.8,2.5-19.6,8.5c-9.7,15.2-15.9,31.8-16.3,50.1c0,1.7,0.4,3.9,1.5,5C570.2,745.2,574.1,748.6,577.9,752.2z
		 M563.2,741.8c-5,3.6-4.3,10.1,1.2,14.9c17.2,15,36.9,19.2,58.7,13.1c5.3-1.5,10.3-4,16.6-6.5c-4.7-3.9-8.2-6.6-11.5-9.6
		c-2.1-1.9-3.8-1.8-6.2-0.6c-10.6,5.3-21.7,7.2-33.5,4.9C577.9,756,569.6,750.3,563.2,741.8z M656.3,750.4
		c8-21.2,6.6-27.8-12.9-37.7c-2.2-1.1-4.6-1.8-7.5-2.9c-1.4,4.5-2.9,8.5-4,12.6c-0.2,0.9,0.5,2.7,1.3,3.3
		C642.7,731.9,650.5,739.7,656.3,750.4z M630.5,727.4c-1.2,6.2-2.1,11.9-3.4,17.5c-0.6,3,0.2,4.8,2.6,6.8
		c5.4,4.5,10.4,9.6,16.1,14.9c2.3-3.2,5.3-7.3,8.2-11.5c0.5-0.7,0.6-2,0.2-2.7C648.9,742.2,641.6,733.6,630.5,727.4z M641.5,766.4
		c-25.2,10.5-48.5,13.6-72.1-2.6c15.5,20.7,52,24.2,70.7,7.6C641.2,770.4,641.1,768.1,641.5,766.4z M576.3,689.3
		c-15.5,9.9-24.8,37.4-17.3,52.6c1.6-2.6,3.4-5.4,3.7-8.3c1.1-13.8,4.4-26.9,11.2-39C574.7,693,575.3,691.4,576.3,689.3z
		 M643.1,696.2c-2,3.7-3.8,7.1-5.4,10c7.8,4.7,15,9,22.5,13.5C656.7,710.5,656.2,699.5,643.1,696.2z"/>
	<path class="st1" d="M937.1,907.4c0,30.4-24.6,55-54.9,55c-30.5-0.1-55.1-24.6-55-54.9c0.1-30.3,24.7-55,55-55
		C912.6,852.4,937.1,877,937.1,907.4z M865.5,957c5.6,1.1,10,2,14.5,2.9c2.8,0.5,4.5-0.6,6-3.1c11.6-19.2,19.8-39.5,22.8-61.8
		c1.4-10.3,0.2-12-10.4-13.1c-2.7-0.3-3.8,0.6-4.5,3.2C887.2,909.4,879.2,933.4,865.5,957z M892.3,880.4c-7.4,1.8-13.8,3.3-20.2,4.9
		c-3.3,0.8-4.6,3-5.3,6.4c-3.4,16.7-7.9,33.1-17.7,47.4c-0.7,1-0.6,3.5,0.2,4.2c4.4,4.1,9.1,8,14,12.1
		C877.1,931.7,885.3,907.2,892.3,880.4z M887,959.6c8.3-1.5,15.9-1.5,20.1-7.4c9.2-13.2,16.3-27.4,18.2-43.8
		c1.1-9.8-2.7-16.8-12.9-21C909.9,913,901.7,936.7,887,959.6z M853.5,872.9c2.8,2.6,5.3,4.7,7.5,7.2c3.4,3.7,6.4,4.3,11.6,2.4
		c17.7-6.4,34.7-5.5,49.3,8c2.4,2.2,4.3,5,6.4,7.5c3.8-1.9,4.3-4.3,3.2-8.3c-2-6.8-7.7-9.8-12.6-13.6
		C901.4,862.7,873.8,861.2,853.5,872.9z M846.9,868.6c-2.4,3-5.6,6.8-8.6,10.7c-0.6,0.8-0.8,2.6-0.3,3.6
		c4.8,10.4,11.7,19.1,22.2,25.9c1.5-6.2,2.7-12.1,4.3-17.8c0.8-2.9-0.1-4.5-2.1-6.4C857.3,879.6,852.5,874.4,846.9,868.6z
		 M853.7,925.7c1.4-3.5,2.7-6.9,4.2-10.2c1.2-2.6,0.5-4.2-1.6-6.3c-6.2-6.2-11.8-12.9-17.6-19.5c-1.2-1.4-2-3.2-3-4.8
		c-0.6,0-1.2,0-1.7,0c-1.3,6.7-2.8,13.5-4,20.3c-0.2,1.3,0.4,3,1.2,4.1C836.5,917.5,844.1,922.5,853.7,925.7z M922.2,874.6
		c-14.9-20.8-48.7-25.9-69.2-10.7c-2.7,2-2.1,3.7-0.5,5.6C876.6,860,900,858.1,922.2,874.6z M933.5,898.6c-0.6-0.2-1.2-0.5-1.8-0.7
		c-1.2,2.8-3,5.5-3.4,8.4c-1.8,13.5-5.8,26.2-13,37.8c-0.9,1.5-1.6,3-2.7,5.3C928.1,940.7,937.7,916.8,933.5,898.6z M851.9,929.3
		c-7.3-4.9-14.4-9.6-21.1-14c0.6,12.3,5.9,20.9,15.2,23.5C848.1,935.5,850.1,932.1,851.9,929.3z"/>
	<path class="st1" d="M437.1,907.7c0,30.4-24.7,54.9-55.1,54.7c-30.4-0.1-54.9-24.8-54.8-55.1c0.1-30.3,25-55,55.2-54.8
		C412.9,852.6,437.2,877.1,437.1,907.7z M365.5,957c5.6,1.1,10,2,14.5,2.9c2.8,0.5,4.5-0.6,6-3.1c11.6-19.2,19.7-39.5,22.9-61.8
		c1.5-10.4,0.7-11.6-10-13c-2.7-0.4-4.2,0.1-5,3.1C387.2,909.5,379.2,933.4,365.5,957z M363.6,954.9c13.5-23.2,21.7-47.7,28.7-74.5
		c-7.4,1.8-13.6,3.2-19.8,4.8c-3.4,0.8-4.9,3-5.6,6.6c-2.8,14-6.5,27.8-13.6,40.5c-6.2,11-6.1,11.5,4.4,18.8
		C359.4,952.2,361.3,953.4,363.6,954.9z M413.6,886.3c-3.3,13.7-5.3,26.3-9.4,38.1c-4.1,11.9-10.3,23.1-15.9,35.1
		c7-1.5,14.6-1.4,18.8-7.4c10.2-14.5,17.3-30.4,18.7-48.3c0.1-1.9,0-4.3-1.1-5.6C421.4,894.1,417.6,890.5,413.6,886.3z M353.7,872.8
		c2.8,2.7,5.6,5.3,8.2,8c2.9,3.1,5.6,3.8,9.9,1.9c17.3-7.3,42.2-6,56,14.7c0.1,0.2,0.6,0.3,0.8,0.4c3.6-1.9,4-4.4,2.8-8.3
		c-2.3-7.5-8.8-10.6-14.3-14.7C400.5,862.5,372.2,861.6,353.7,872.8z M358.6,913.3c-8.4-9.7-16.2-18.6-23.7-27.3
		c-10.3,16.9-1.7,35.8,19.2,39.2C355.7,920.8,357.4,916.4,358.6,913.3z M347.1,868.8c-0.4,0.3-1.7,1.5-2.9,2.8
		c-8,8.5-8,9.1-2.1,18.9c4.4,7.3,10.4,13,18,18.2c1.5-6.5,3.2-12.2,4.1-18.1c0.3-1.8-0.7-4.3-2-5.8
		C357.6,879.4,352.4,874.4,347.1,868.8z M352.6,869.5c24.2-9.6,47.7-11.4,69.9,5.2c-15.8-21-47.7-25.9-69.1-11
		C350.5,865.7,350.6,867.4,352.6,869.5z M433.4,898.6c-0.6-0.2-1.2-0.5-1.7-0.7c-1.2,2.6-3,5.2-3.4,7.9c-1.8,14-6,27.2-13.6,39.2
		c-0.7,1.2-1.2,2.5-2.1,4.4C428.2,940.4,437.8,916.4,433.4,898.6z M351.9,929.3c-7.6-5.1-14.6-9.8-21.7-14.7
		c2.9,9.5,3,20.6,15.7,24.4C348,935.5,350.1,932.2,351.9,929.3z"/>
	<path class="st1" d="M937.1,407.4c0,30.6-24.6,55.1-55.4,55.1c-29.9,0-54.5-24.8-54.6-54.9c0-30.2,24.6-55,54.9-55.1
		C912.4,352.3,937.1,377,937.1,407.4z M865.9,457.2c5.4,1,9.9,2.2,14.4,2.5c1.8,0.1,4.4-1.4,5.4-2.9c12-19.1,20.1-39.7,23.2-62.1
		c1.4-10.1,0.9-10.9-9.3-12.6c-3.4-0.6-4.8,0.2-6,3.7c-5.6,17-11.5,34-17.7,50.8C873.4,443.2,869.7,449.3,865.9,457.2z M892.3,380.4
		c-7.4,1.8-13.8,3.3-20.1,4.9c-3.2,0.8-4.7,2.9-5.3,6.3c-2.9,14.2-6.5,28.2-13.8,40.9c-6,10.6-6,10.9,4.1,18.1
		c2,1.4,4.1,2.7,6.5,4.2C877.1,431.9,885.2,407.2,892.3,380.4z M914,386.6c-0.6,0.3-1.2,0.7-1.8,1c-2.3,25.7-10.7,49.3-25.1,71.9
		c8-1.3,15.6-1.4,19.8-7.2c10.4-14.5,17.5-30.6,19-48.7c0.1-1.6,0.2-3.7-0.7-4.7C921.7,394.6,917.8,390.6,914,386.6z M853.1,372.5
		c4.6,4.2,8.4,7.9,12.5,11.3c0.8,0.6,2.8,0.2,4-0.3c24.2-9.5,41.8-5.2,58.8,14.4c5.1-3.4,4.8-10.2-1.1-15.1
		c-4.8-4-9.7-8.3-15.2-11.2C892.8,361.3,873.4,363.8,853.1,372.5z M853.7,425.7c1.4-3.5,2.7-6.9,4.2-10.2c1.2-2.7,0.7-4.4-1.8-6.2
		c-8-5.9-14.5-13.1-19-22.1c-0.4-0.8-1.1-1.4-1.6-2.1c-0.5,0-1,0-1.5,0c-1.4,6.6-2.8,13.1-4,19.8c-0.2,1.4,0.4,3.3,1.2,4.6
		C836.5,417.6,844.2,422.5,853.7,425.7z M846.9,368.5c-2.6,3.2-5.8,7.1-8.9,11.1c-0.5,0.7-0.6,2.3-0.2,3.1
		c4.9,10.4,11.8,19.1,22.2,25.9c1.4-5.8,2.5-11.3,4.1-16.7c1.1-3.5,0.2-5.6-2.5-8.1C856.7,379.3,852.2,374,846.9,368.5z
		 M852.8,369.9c11.3-5.8,23.2-7.8,35.5-7.4c12.6,0.3,24,4.2,33.7,12.6c0.3-0.7,0.4-0.9,0.4-0.9c-15-20.2-48.7-25.2-69.2-10.3
		C850.5,365.8,850.8,367.4,852.8,369.9z M912.8,448.5c16.4-10,25.7-34.1,19.6-50.3c-1.8,2.5-3.7,5.1-4.1,7.9
		c-1.8,13.2-5.5,25.6-12.4,37C914.7,444.8,913.8,446.7,912.8,448.5z M830.9,415.3c-0.1,10.9,5.6,20.4,15,23.6c2-3.3,4.1-6.8,5.9-9.7
		C844.4,424.3,837.5,419.6,830.9,415.3z"/>
	<path class="st1" d="M381.8,462.4c-30.8-0.4-55.1-25.2-54.6-55.8c0.4-30,25.6-54.6,55.4-54.2c30.8,0.4,55,25.2,54.5,55.9
		C436.7,438.5,411.8,462.8,381.8,462.4z M365.5,457c5.7,1.1,10.2,2.4,14.9,2.7c1.8,0.1,4.4-1.4,5.4-3c12-19.1,20.1-39.7,23.1-62.2
		c1.4-10.1,0.9-10.9-9.4-12.4c-0.3,0-0.7-0.1-1-0.1c-2.6-0.6-3.9,0.3-4.6,3C387.2,409.3,379.2,433.3,365.5,457z M363.6,454.8
		c13.5-22.9,21.6-47.5,28.7-74.4c-7.4,1.8-13.8,3.3-20.1,4.9c-3.3,0.8-4.6,2.9-5.3,6.3c-2.9,14.2-6.5,28.2-13.8,40.9
		c-6.1,10.7-6.1,11.1,4.4,18.4C359.4,452.2,361.4,453.4,363.6,454.8z M413.3,387.7c-2.9,12.2-4.9,24.8-9,36.6
		c-4.1,12-10.4,23.2-15.9,35.1c6.8-1.1,14.5-1.2,18.6-7.1c9.2-13.2,16.3-27.4,18.2-43.8C426.3,398.6,422.7,391.8,413.3,387.7z
		 M352.9,372.4c3.3,3.1,6,5.3,8.4,7.8c3.3,3.5,6.2,4.4,11.2,2.3c18.5-7.5,42.6-4.7,55.5,15c0.1,0.2,0.6,0.2,0.9,0.2
		c4.6-3.7,4.1-10.3-1.4-15c-4.4-3.7-8.9-7.6-14-10.5C393.7,361.1,374,363.8,352.9,372.4z M353.9,425.7c1.6-4.1,3.1-7.9,4.4-11.9
		c0.3-0.9-0.1-2.8-0.8-3.3c-9.1-6.9-16.6-15.2-21.7-26C325.2,405.1,328.5,415.6,353.9,425.7z M347.1,368.8c-0.3,0.3-1.5,1.3-2.7,2.4
		c-8.4,8.7-8.4,9.5-2.1,19.7c4.4,7.1,10.3,12.7,17.8,17.7c1.6-6.5,3.2-12.3,4.2-18.1c0.3-1.8-0.7-4.4-2-5.8
		C357.6,379.4,352.4,374.3,347.1,368.8z M352.5,369.6c24.3-9.5,47.7-11.5,70,5.6c-0.3-1-0.3-1.3-0.5-1.6
		c-15.9-19.9-48-24.4-68.8-9.8C350.7,365.6,350.6,367.2,352.5,369.6z M432,397.8c-1.3,2.5-3.3,4.9-3.7,7.5
		c-1.8,14.2-6.1,27.5-13.7,39.7c-0.7,1.1-1.2,2.5-2.1,4.5C428.7,439.4,438,415.7,432,397.8z M330.8,415.2c1,13,6,21.1,15.3,23.5
		c2-3.3,4-6.6,5.8-9.4C344.6,424.4,337.6,419.7,330.8,415.2z"/>
	<path class="st1" d="M472.7,619.8c30.5-0.1,55.2,24.4,55.2,54.7c0,30.4-24.6,55.1-54.9,55.1c-30.4,0-54.9-24.6-54.9-55.1
		C418.1,644.4,442.5,619.9,472.7,619.8z M452.7,644.6c6.2,12.8,11.6,25.5,18.2,37.6c6.8,12.3,14.8,24,22.3,36c2,3.1,4.2,3.3,7.4,1.2
		c10.9-7.1,18.3-16.7,22.4-29c1.1-3.1,0.7-5.5-1.9-7.4c-11.7-8.4-23.1-17.3-35.2-25.2c-8.2-5.4-17.4-9.3-22-18.8
		c-2.6,1.1-4.8,2-6.8,3C455.9,642.6,454.8,643.3,452.7,644.6z M493.7,722.9c-18.6-23.7-31-50.1-42.9-77.5c-2.9,2.1-5.5,3.8-7.8,5.8
		c-0.8,0.7-1.3,2.7-1,3.7c3.1,7.8,2,15.7,1.4,23.6c-0.8,11.6-1.3,23.2-1.6,34.8c0,1.8,1.2,4.3,2.7,5.2
		C460,728.3,476.2,729.7,493.7,722.9z M524.4,682.6c2.9-15.8-2.4-33.4-12.3-40.5c-14.2-10.2-29.6-8.6-45.7-3.3
		c3.3,4.1,6.4,8.3,10.7,10.8C493.6,659.1,510.2,668.5,524.4,682.6z M440.1,654.5c-21.3,16.1-21.3,50.3-1.8,58.6
		c1.2-14,2.6-28.2,3.4-42.5C442,665.6,440.8,660.4,440.1,654.5z M507.2,635.5c-8.5-7.9-18.6-12.2-30.1-13.1
		c-6-0.5-12.7,7.2-11.5,13.2C479.4,631.4,493.2,630.2,507.2,635.5z M440.8,649.6c2.1-1.5,4.7-3.2,7.1-5.2c0.8-0.7,1.7-2.2,1.5-3.1
		c-0.9-3.8-2.1-7.5-3.6-12.6c-6.2,6-11.7,11.2-17.3,16.7C433.1,646.9,436.5,648.1,440.8,649.6z M462.2,636.9
		c-0.4-0.4-0.7-0.8-1.1-1.2c2.2-4.3,4.4-8.7,7.1-13.9c-5.9,1.8-11.7,3.5-17.4,5.5c-0.9,0.3-1.8,2.5-1.6,3.5
		c0.7,3.5,1.8,6.9,2.9,10.7C455.9,639.8,459,638.3,462.2,636.9z M420.7,677.6c5.1-8.4,10.6-17.3,16.1-26.3
		c-3.3-3.1-8.8-3.7-10.6-0.3C421.7,659.7,419.8,668.9,420.7,677.6z"/>
	<path class="st1" d="M672,413.1c-0.1,30.4-24.8,54.8-55.4,54.6c-30.3-0.2-54.7-25-54.4-55.5c0.2-30.3,25-54.5,55.7-54.2
		C648,358.2,672.1,382.8,672,413.1z M635.1,380.9c-8.8,11.4-17.6,21.9-25.4,33.1c-7.6,10.9-14.4,22.4-21,33.9
		c-4,6.9-3.4,7.4,3.7,11.2c10.4,5.5,21.3,7.1,32.9,5.5c3.5-0.5,5.6-1.9,6.1-5.3c2.3-14.1,4.9-28.2,6.5-42.3
		c1.1-9.8,0.6-19.7,6.9-28.5C641.7,386,638.9,383.8,635.1,380.9z M633.2,379.8c-3.1-1.6-5.7-3.2-8.6-4.3c-1-0.4-3.1,0-3.8,0.8
		c-5.4,6.1-12.7,8.9-20,11.8c-9,3.5-17.6,7.9-26.6,11.2c-8.2,3-10.3,8.3-9.5,16.5c1.4,15,7.3,27.3,18.7,37.3
		C596.1,425.8,614.1,402.8,633.2,379.8z M646.8,390.3c-4.4,6.2-5.4,12.5-5.9,19c-0.7,10.4-1.5,20.9-2.8,31.3
		c-0.9,7.2-2.8,14.2-4.4,22.1c13.9-5.8,25.9-13.2,29.6-28C667.9,417,658.7,403.3,646.8,390.3z M566.7,399.5
		c13.6-5.6,27.2-10.8,40.5-16.7c4.5-2,8.3-5.4,13.2-8.6C594.8,363.2,570.8,375.3,566.7,399.5z M648.5,388.4
		c10.3,10.6,17.4,22.6,18.8,38.1c3.4-10.2,2.6-24.8-1.6-33.6C663.1,387.6,654.2,385,648.5,388.4z M635.1,377.9
		c3.4-3.1,6.6-6.1,11-10.1c-8-2.8-15.2-5.3-22.6-7.9c0.6,5,1,8.7,1.5,12.8C627.8,374.2,631.2,375.9,635.1,377.9z M637.9,379.7
		c1.5,1.2,3,2.5,4.6,3.6c1.4,1,3,2.6,4.5,2.5c4.8-0.2,9.6-1,14.1-1.6c-1-1.3-2.5-3.7-4.4-5.7c-9.7-10.1-8.2-10.1-18.4,0.1
		C638.1,378.8,638.1,379.2,637.9,379.7z M590.6,367.6c9.8,0.7,20.3,1.5,30.9,2.4c1.5-4.7-0.9-9.7-5.4-9.6
		C606.7,360.6,597.8,362.9,590.6,367.6z"/>
	<path class="st1" d="M418,174.8c0-30.6,24.4-55,54.9-55c30.5,0,55,24.5,54.9,55c-0.1,30.2-24.6,54.8-54.7,54.9
		C442.7,229.7,418,205.2,418,174.8z M452.5,144.3c6.5,13.5,12.3,26.8,19.2,39.4c6.5,11.9,14.3,23.1,21.6,34.6c1.9,2.9,4,3.2,7,1.2
		c11-7.2,18.6-16.9,22.7-29.4c1-3,0.7-5.2-1.8-7c-10.8-8-21.3-16.4-32.5-23.8c-9.1-6-19.7-9.9-25.1-20.5
		C459.9,140.7,456.7,142.3,452.5,144.3z M450.8,145.4c-2.9,2.1-5.5,3.8-7.6,5.8c-0.8,0.8-1.5,2.7-1.1,3.7c3.2,8.1,2,16.3,1.4,24.6
		c-0.9,11.4-1.1,22.9-1.5,34.4c0,1.4,0.7,3.4,1.7,4.3c11.2,9.9,36.1,12.1,49.7,4.5C475.1,199.4,462.7,172.9,450.8,145.4z M525,182.6
		c0.8-16.3-0.4-31.3-13.8-41.1c-13.7-10-29.1-7.9-44.8-3.5c3.2,6.8,8.5,10.4,14,13.8c10.3,6.4,20.6,12.7,30.7,19.4
		C515.8,174.3,519.8,178.3,525,182.6z M438.8,213.9c0.5-9.9,0.8-19.3,1.4-28.7c0.4-6,1.6-11.9,1.6-17.9c0-4-1.3-8.1-2.2-12.9
		C418.6,173.7,418.6,198.8,438.8,213.9z M507.1,135.6c-8.5-8-18.7-12.3-30.3-13.1c-5.7-0.4-12.2,7.2-11.3,13.2
		C479.3,131.5,493.1,130.2,507.1,135.6z M449.9,142.8c-1.3-4.4-2.5-8.6-4.1-14.3c-6.2,6-11.6,11.3-17.1,16.7c4.8,1.8,8.2,3.1,12,4.4
		C443.5,147.6,446.7,145.2,449.9,142.8z M462.1,137c-0.3-0.4-0.6-0.7-1-1.1c2.2-4.3,4.3-8.7,6.6-13.3c-2.2,0.4-4.9,0.5-7.5,1.3
		c-13.2,4.1-13.1,2.5-8.1,16.8c0,0.1,0.2,0.2,0.6,0.6C455.8,139.8,458.9,138.4,462.1,137z M436.8,151.3c-3.5-3.1-8.8-3.6-10.6-0.2
		c-4.5,8.6-6.4,17.8-5.4,26.5C425.8,169.3,431.2,160.5,436.8,151.3z"/>
	<path class="st1" d="M117.1,857.9c30.4-0.1,54.8,24.4,54.8,55c0,30.1-24.4,54.6-54.7,54.8c-30.3,0.2-55.1-24.5-55.1-54.9
		C62.1,882.4,86.5,858,117.1,857.9z M135.1,880.9c-8.9,11.5-17.9,22.3-25.8,33.8c-7.9,11.5-14.6,23.8-21.8,35.8
		c-1.9,3.1-1.2,5.3,2.2,7.2c11.3,6.5,23.2,8.8,36.1,7c3.3-0.5,5.2-1.9,5.8-5.1c2.2-12.3,4.9-24.5,6.3-36.8c1.3-11.6-0.3-23.7,7-34.3
		C141.6,885.9,138.9,883.8,135.1,880.9z M133.3,879.8c-3.3-1.7-6-3.2-8.9-4.4c-0.9-0.4-2.8,0-3.4,0.7c-5.9,6.9-14.2,9.5-22.2,12.8
		c-10.1,4.2-20,8.9-30,13.4c-2.8,1.2-3.8,3.2-3.9,6.2c-0.9,14.3,3,27,12.1,38c1.9,2.3,4,4.5,6.2,6.9
		C96.2,925.7,114,902.8,133.3,879.8z M134.7,961.6c11-1.7,26.6-15.6,28.9-27.2c3.5-17.8-5-31.3-17.4-44.6c-1.7,4.6-3.7,8.2-4.3,11.9
		c-1,6.4-0.7,12.9-1.5,19.4C138.7,934.7,136.7,948.2,134.7,961.6z M120.3,873.9c-24.8-8.7-48-2.5-53.4,25.6
		c14.3-5.9,28.8-11.8,43.2-18.1C113.5,879.9,116.3,876.9,120.3,873.9z M167.5,925.7c3.2-11.5,2.6-22.7-2.3-33.5
		c-2.4-5.2-11.9-7.2-16.6-3.6C158.7,899,165.8,910.9,167.5,925.7z M125,872.7c2.9,1.5,6.4,3.3,10.1,5.1c3.3-3.1,6.6-6,10.9-10.1
		c-8-2.8-15.2-5.3-22.7-8C124,864.8,124.4,868.3,125,872.7z M161.1,884.1c-0.9-1.2-2.4-3.7-4.3-5.6c-9.5-9.7-8.1-10.7-18.6,0.5
		c-0.1,0.1-0.1,0.3-0.2,0.8c1.8,1.4,3.7,3.1,5.8,4.4c1.1,0.7,2.5,1.5,3.8,1.4C151.9,885.3,156.4,884.7,161.1,884.1z M121.6,869.9
		c1.7-6.3-1.3-10.1-8.1-9.5c-1.7,0.2-3.3,0.3-5,0.6c-7.8,1.2-15.4,4.4-17.4,6.6C100.5,868.3,110.8,869.1,121.6,869.9z"/>
	<path class="st1" d="M172,413c-0.1,30.4-24.7,54.8-55.2,54.7c-30.3-0.1-54.7-24.9-54.6-55.4c0.1-30.3,24.8-54.5,55.5-54.4
		C147.8,358.1,172,382.6,172,413z M144.9,388.5c-3.2-2.5-6.2-4.7-10.2-7.8c-11.3,15.3-22.4,29.8-32.8,44.8
		c-5.4,7.8-9.5,16.4-14.3,24.6c-1.9,3.4-1.4,5.6,2.2,7.6c11.1,6.4,22.9,8.7,35.6,6.9c3.5-0.5,5.6-1.9,6.1-5.3
		c2.3-14.4,4.9-28.8,6.5-43.3C139.1,406.5,138.8,397,144.9,388.5z M82.8,452c7.7-12.4,15-25.1,23.3-37.1c8.3-12,17.6-23.3,26.8-35.4
		c-2.6-1.3-5.3-2.9-8.2-4.1c-1-0.4-3.1-0.1-3.8,0.7c-5.4,6.1-12.7,8.8-20,11.8c-10.9,4.5-21.6,9.5-32.3,14.4
		c-1.4,0.7-3.1,2.3-3.4,3.7C61.6,421.3,70.8,444.1,82.8,452z M146.8,390.3c-4.5,6.2-5.4,12.5-5.9,19.1c-0.9,11.4-1.8,22.9-3.2,34.2
		c-0.8,6.1-2.6,12.1-4.1,19c14.2-6,26.5-13.5,29.9-28.6C167.6,416.6,158.6,403.1,146.8,390.3z M120.3,373.9
		c-24.7-8.6-47.9-2.6-53.5,25.7c14.4-6.1,29.1-12,43.7-18.4C113.8,379.7,116.5,376.8,120.3,373.9z M148.5,388.5
		c10.1,10.4,17.3,22.4,19,37.1c3.1-11.2,2.5-22.2-2-32.8C163.2,387.3,153.9,384.9,148.5,388.5z M123.4,359.9c0.6,5.2,1,9,1.4,12.8
		c3.2,1.6,6.6,3.4,10.2,5.2c3.3-3,6.6-6,10.9-10C138,365,130.9,362.5,123.4,359.9z M161,384.1c-0.9-1.2-2.4-3.7-4.3-5.7
		c-9.5-9.6-8-10.8-18.6,0.5c-0.1,0.1-0.1,0.3-0.2,0.7c2.1,1.7,4.2,3.5,6.5,5.2c0.8,0.6,2,0.9,3,0.8
		C151.9,385.3,156.4,384.7,161,384.1z M121.5,369.9c1.3-4-0.6-9.5-4.3-9.5c-9.9-0.1-19.2,2.3-26.5,7.2
		C100.4,368.3,110.9,369.1,121.5,369.9z"/>
	<path class="st1" d="M211.7,516.8c0-30.4,24.5-54.9,55.1-54.8c30.1,0,54.7,24.6,54.8,54.7c0.1,30.2-24.8,55.2-55,55.2
		C236.3,571.8,211.7,547.2,211.7,516.8z M271.2,522.8c11.1-1,26.5-2.4,41.8-3.8c4.5-0.4,6.7-2.3,5.9-7.5
		c-1.7-11.5-6.2-21.6-13.9-30.4c-3.3-3.7-6.6-5.3-11.2-2.9c-13.2,7.1-26.2,14.3-39.5,21.1c-6.6,3.4-13.3,6.8-20.3,8.8
		c-5.8,1.7-3.2,5.6-3.8,8.7c-0.7,3.6,1.9,4,4.6,4.1C245.5,521.5,256.1,522,271.2,522.8z M318.5,520.4c-29.2,5.7-58.2,4.8-87.9,2.8
		c0.5,3.6,0.8,6.7,1.6,9.7c0.3,1,1.9,2.3,3,2.4c8.3,0.9,14.9,5.3,21.7,9.6c9.8,6,19.8,11.6,29.8,17.1c1.4,0.8,3.8,1.4,5.1,0.7
		C305.6,555.7,318.8,538.1,318.5,520.4z M296.6,474.6c-9.5-9.2-29.9-13-41.2-7.7c-12.6,5.8-24.5,25.4-23.5,40.3
		c5.5-2.2,11.2-3.5,15.7-6.4C263.1,490.5,278.8,480.7,296.6,474.6z M233.8,537.6c6.4,24.1,25.8,39.8,52,27.6
		c-14.2-8.4-28.3-17-42.7-25.2C240.5,538.5,237.2,538.4,233.8,537.6z M248.5,468c-10.9,3.6-21.7,12.6-26.6,21.3
		c-3,5.4,0.5,14.5,6.5,16.4C231,491.4,236.2,478.5,248.5,468z M213.1,519.9c2.6,8.4,4.9,15.7,7.1,23c3.7-3.4,6.4-5.9,9.4-8.7
		c-0.6-3.4-1.2-7.3-1.9-11.3C223.4,522,219.3,521.1,213.1,519.9z M218.4,495.6c-1.2,4-2.4,6.6-2.8,9.4c-2.3,13.7-3.8,12.5,10.8,14.9
		c0.3,0,0.6-0.2,1.6-0.4c0-1.9,0.1-4,0-6.1c-0.1-1.7-0.2-4.4-1.1-4.8C221.7,506.4,220.2,501.9,218.4,495.6z M229.4,538.4
		c-4,1.4-7.3,6.2-5.1,9.2c5.6,8,13,13.9,21.3,17.2C240.4,556.3,234.9,547.5,229.4,538.4z"/>
	<path class="st1" d="M617.6,857.9c30.4,0.2,54.6,24.9,54.4,55.5c-0.2,30.1-24.9,54.4-55.2,54.3c-30.3-0.1-54.7-24.9-54.7-55.4
		C562.3,882.1,587.1,857.7,617.6,857.9z M635.1,880.8c-9.3,12.1-18.6,23.4-26.9,35.4c-7.6,11.1-14,23-20.9,34.6
		c-1.6,2.7-1.1,4.7,1.9,6.5c11.5,6.9,23.8,9.5,36.9,6.9c1.9-0.4,4.6-2.5,5-4.3c2.3-9.5,4.3-19.1,6-28.8c2.5-14.2-1.4-29.5,7.6-42.8
		C641.7,886,639,883.8,635.1,880.8z M633.3,879.8c-3.2-1.6-5.7-3.2-8.5-4.2c-1.1-0.4-3.1-0.2-3.8,0.6c-5.8,6.5-13.6,9.2-21.3,12.4
		c-10.3,4.2-20.3,9-30.5,13.5c-3.2,1.4-4.7,3.6-4.3,7c1,7.5,1.4,15.3,3.5,22.5c2.5,8.6,8,15.7,15,21.2
		C596.3,925.8,614,902.7,633.3,879.8z M633.4,962.2c15.1-4,29.1-17.9,30.8-30.1c2-14-7-34.7-18.8-41.6c-1.5,5.5-3.8,10.7-4,16
		C640.5,925.1,639.1,943.6,633.4,962.2z M566.8,899.5c13.3-5.4,26.4-10.8,39.6-16.2c5.1-2.1,9.6-4.8,13-9.6
		C596.3,865.3,572.7,870.9,566.8,899.5z M667.5,925.5c3.1-11.1,2.5-21.9-1.8-32.3c-2.3-5.8-11.8-8.4-17.1-4.7
		C658.6,899,665.9,910.8,667.5,925.5z M623.4,859.9c0.6,5.1,1,8.7,1.5,12.8c2.9,1.5,6.6,3.4,10.2,5.2c3.4-3.2,6.6-6.2,10.8-10.1
		C638,865,630.9,862.5,623.4,859.9z M661.1,884.2c-0.9-1.2-2.4-3.7-4.3-5.7c-9.6-9.7-8-10.7-18.6,0.5c-0.1,0.1-0.1,0.3-0.2,0.7
		c2.1,1.7,4.3,3.5,6.5,5.2c0.8,0.6,2,0.9,3,0.8C652,885.3,656.5,884.7,661.1,884.2z M621.4,870.8c1.8-7.3-1.1-11-8-10.4
		c-1.7,0.2-3.3,0.2-5,0.6c-6.7,1.3-13.1,3.1-18.3,6.9c5,0,10.2-0.4,15.2,0.1C610.7,868.5,615.9,869.8,621.4,870.8z"/>
	<path class="st1" d="M711.7,516.5c0.1-30.4,24.8-54.7,55.3-54.5c30.1,0.2,54.7,25,54.5,55c-0.2,30.4-24.9,54.9-55.2,54.9
		C736.1,571.7,711.6,546.9,711.7,516.5z M771.3,522.8c11-1,26.4-2.2,41.8-3.9c6.1-0.7,6.5-1.8,5.7-7.9c-1.6-12.1-6.7-22.5-15.2-31.3
		c-2.4-2.4-4.5-3.1-7.9-2c-14.7,5.2-27.9,13.1-41,21.4c-6.2,3.9-13.2,7.2-20.2,9c-6.2,1.6-3.6,5.7-4.2,8.9c-0.7,3.7,2.1,3.9,4.7,4
		C745.6,521.5,756.2,522,771.3,522.8z M819,520.3c-29.6,5.7-58.6,5-88.5,2.8c0.5,3.7,0.8,6.9,1.6,10.1c0.2,0.9,1.8,2,2.8,2.1
		c8.5,0.9,15.2,5.4,22.2,9.7c9.6,5.9,19.5,11.4,29.4,16.8c1.5,0.8,4.2,1.4,5.5,0.6C808.2,553.2,817,539.2,819,520.3z M730.7,507.2
		c5.8-2,10.9-2.8,14.8-5.3c16.4-10.4,32.4-21.2,52.1-27.6c-13.6-8.3-26.9-13.8-41.3-7.6C739.8,473.9,734.3,489.1,730.7,507.2z
		 M733.8,537.5c6.4,24.2,26,39.9,51.9,27.7c-14-8.4-28-16.9-42.1-25C740.8,538.6,737.3,538.4,733.8,537.5z M728.1,505.9
		c1.4-5,2.4-9.7,4.1-14.2c1.7-4.3,3.7-8.6,6.2-12.4c2.5-3.8,5.8-7.2,9.3-11.3c-11.2,4.5-19.4,11.5-25.5,21
		C719,494.1,722,503,728.1,505.9z M713.1,519.7c2.7,8.7,4.9,15.9,7.2,23.3c3.5-3.3,6.2-5.9,9.2-8.7c-0.9-10.8-0.9-10.8-11.8-13.4
		C716.8,520.6,715.8,520.4,713.1,519.7z M728,519.5c0-2.3,0.1-4.7,0-7.1c-0.1-1.4-0.2-3-1-4c-3-3.6-6.2-7-9.3-10.3
		c-0.5,1.5-1.6,4.1-2.1,6.9c-2.4,13.8-3.7,12.5,10.7,15C726.6,520,726.9,519.8,728,519.5z M745.6,564.8
		c-5.2-8.5-10.7-17.4-16.2-26.4c-3.8,1.5-7.2,6.2-5.3,8.9C729.7,555.5,737.3,561.4,745.6,564.8z"/>
	<path class="st1" d="M732.8,183.5c47.8,0.7,89.8,37.2,96.9,84.3c0.2,1.2,0.3,2.3,0.3,3.5c1.1,17.7-4.7,24.3-22.6,25.6
		c-37.5,2.7-76.4-20.3-94.5-55.7c-5.7-11.2-9.8-23-9.9-35.8c-0.1-13.3,4.2-18.4,17.3-20.7C724.4,184.1,728.6,183.9,732.8,183.5z
		 M819.4,243.2c-0.4-1.1-0.9-2.5-1.6-3.8c-13.1-25-33.2-41.6-60.4-49.4c-2-0.6-4.7-0.3-6.5,0.7c-18.4,9.3-30.4,24-35.9,43.8
		c-0.6,2-0.4,4.7,0.6,6.5c13.1,24.5,32.9,41.1,59.5,49.3c2.2,0.7,5.4,0.5,7.5-0.6c18.2-9.1,30.2-23.6,35.9-43.2
		C818.8,245.5,819,244.6,819.4,243.2z M709.4,226.5c6.4-17,16.8-29.7,32.3-39.7c-11.2-1.2-21-1.5-29.9,3.5c-2.5,1.4-4.7,4.9-5.5,7.8
		C704.2,207.3,706,216.4,709.4,226.5z M823.9,256c-6.8,15.7-17.4,28-31.3,38.2c8.6,0,16.8-0.6,24.9-2.1c6-1.1,9.2-5.4,9.9-11.6
		C828.4,272.1,826.8,264.2,823.9,256z"/>
	<path class="st1" d="M301,297c-46.9,0-91-38.5-97.6-85c-2.6-18.7,4-26.9,22.8-28.1c50-3.2,96.7,34.9,103.5,84.3
		c0,0.2,0,0.3,0.1,0.5c2.4,19.4-4.3,27.3-23.8,28.2C304.3,297.1,302.6,297,301,297z M319.4,243.3c-0.4-1.1-0.9-2.5-1.6-3.8
		c-13.1-25-33.1-41.7-60.3-49.5c-2-0.6-4.7-0.3-6.5,0.6c-18.4,9.3-30.4,23.9-35.9,43.8c-0.6,2.1-0.3,5,0.8,6.9
		c13.1,24.3,32.8,40.7,59.2,48.9c2.4,0.7,5.7,0.4,7.9-0.7c17.8-9.1,29.7-23.2,35.4-42.5C318.6,245.9,319,244.8,319.4,243.3z
		 M240.5,187c-9.8-1.3-19.4-1.7-28.2,3c-2.6,1.4-5,4.7-5.7,7.6c-2.5,9.4-0.6,18.6,2.9,28.9C215.9,209.4,226.2,196.8,240.5,187z
		 M291.3,293.8c10.2,1.3,18.9,1.5,27-1.9c3.2-1.4,6.8-4.3,8-7.4c3.5-9.6,0.8-19.1-2.3-28.5C317.2,271.6,306.8,284,291.3,293.8z"/>
	<path class="st1" d="M232.6,683.5c47.6,0.5,90,37.2,97,84.2c0.2,1.2,0.3,2.3,0.3,3.5c1.2,17.7-4.6,24.3-22.4,25.7
		c-38.6,2.9-78.8-21.7-96.3-59.1c-4.8-10.2-8.1-20.8-8.1-32.2c-0.1-13.3,4.1-18.3,17.2-20.8C224.3,684.1,228.5,683.9,232.6,683.5z
		 M319.3,743.2c-0.4-0.9-0.7-2-1.2-3.1c-13.2-25.6-33.6-42.6-61.4-50.4c-1.7-0.5-4-0.1-5.6,0.7c-18.6,9.3-30.7,24.1-36.2,44.1
		c-0.5,2-0.3,4.7,0.7,6.5c13.1,24.5,33,41,59.5,49.2c2.2,0.7,5.4,0.4,7.5-0.7c18.2-9.2,30.1-23.7,35.8-43.3
		C318.8,745.4,319,744.4,319.3,743.2z M292.6,793.5c9.6,1.4,18.9,1.7,27.7-2.5c2.2-1.1,4.7-3.1,5.6-5.3c4-10.1,1.2-19.9-1.9-29.7
		C317.1,771.7,306.8,784.1,292.6,793.5z M240.5,687c-9.8-1.4-19.4-1.7-28.2,3c-2.6,1.4-4.9,4.7-5.7,7.6c-2.6,9.4-0.5,18.6,2.8,28.9
		C215.9,709.4,226.2,696.8,240.5,687z"/>
	<path class="st1" d="M652.5,19.1c4.3,0.7,10.7,1.5,16.9,3.1c6.3,1.6,9.6,6.2,10.6,12.6c2,12.5-1.4,24.1-6.1,35.4
		c-15.6,37.5-53.7,63.3-93,62.7c-5.4-0.1-10.9-1.2-16.1-2.6c-6.8-1.9-10.3-6.8-10.9-13.9c-1.2-14.8,2.9-28.4,9.5-41.3
		C581.6,39.8,611.2,22.2,652.5,19.1z M604.9,127.3c0.9-0.2,1.7-0.4,2.5-0.6c27-8.5,47.4-25.1,60.6-50.2c0.9-1.7,1.1-4.2,0.6-6.1
		c-5.6-20-17.7-34.8-36.2-44.1c-1.6-0.8-3.9-1.2-5.6-0.7c-27.7,7.9-48.2,24.7-61.2,50.5c-0.8,1.6-1,3.9-0.6,5.6
		c5.7,20.2,18,35,36.7,44.3C602.8,126.6,603.9,126.9,604.9,127.3z M592.6,129.8c-15.7-9.8-26.1-22.3-32.9-39.4
		c-2.9,9.7-4.5,18-3.3,26.7c0.8,5.7,4.1,9.3,9.5,11.1C574,131,582.4,131.1,592.6,129.8z M643.2,22.3c6.4,6.1,12.9,11.3,18.1,17.6
		c5.1,6.3,8.9,13.7,13.4,21c2.5-8.9,4.8-17.8,2.4-26.9c-0.8-3-3.1-6.6-5.7-8.1C662.6,21,653,21.7,643.2,22.3z"/>
	<path class="st1" d="M544.8,358.2c-1.9,9.4-3.1,19-5.9,28.1c-3.9,12.4-10.7,15.7-23.5,13.2c-12.2-2.4-23-8-32.5-15.7
		c-32.8-26.4-46.6-60.4-38.7-102c3.7-19.6,13.2-24.2,32.3-18c35.4,11.4,63.2,46.4,66.4,83.7c0.3,3.5,0.5,7,0.8,10.5
		C544.1,358,544.4,358.1,544.8,358.2z M444.5,310.7c3.7,29.9,16.6,53.2,39.5,70.9c1.1,0.9,3.1,1.2,4.6,1.1
		c20.7-1.9,37.5-10.9,50.1-27.4c1.2-1.6,2.2-3.9,2-5.8c-2.9-28.7-15.7-51.9-38.7-69.3c-1.4-1.1-3.7-1.6-5.4-1.5
		c-20.5,1.8-37,11.1-49.6,27.4C445.7,307.6,445,309.6,444.5,310.7z M489.1,271.8c-9.5-4.7-17.7-8.4-26.9-7.8c-3,0.2-6.6,1.7-8.8,3.7
		c-5.7,5.3-9.7,20.2-8.2,28.5C456.8,283.4,471,275.5,489.1,271.8z M542,366.5c-0.7-0.3-1.3-0.5-2-0.8
		c-11.6,12.6-25.9,20.2-43.8,23.8c9.1,4.8,17.3,7.9,26.3,8.1c5.8,0.2,10.3-2.4,12.3-7.7C537.5,382.4,539.6,374.4,542,366.5z"/>
	<path class="st1" d="M579.6,633.2c-3-0.5-8.8-1.2-14.3-2.7c-7.2-2-10.9-7.1-11.4-14.6c-1-14.2,3.1-27.3,9.1-39.9
		c17.7-36.7,57.1-59.6,96.2-56c0.5,0,1,0.1,1.5,0.1c15.3,1.7,21.5,9.2,19.8,24.6c-3.1,28-17,50.1-38.9,67.2
		C624.3,625.4,604.4,632.4,579.6,633.2z M669.5,573.6c-0.2-1.2-0.3-1.8-0.5-2.5c-5.7-20.6-18-35.7-37.2-45.2
		c-1.6-0.8-3.9-0.7-5.6-0.2c-27.2,7.9-47.3,24.5-60.2,49.6c-1,2-1.3,4.9-0.7,7c5.6,19.6,17.6,34.1,35.9,43.2c2.1,1,5.2,1.3,7.5,0.6
		c26.4-8.2,46-24.7,59.3-48.9C668.5,576,669.1,574.6,669.5,573.6z M560.2,591.6c-0.6,0-1.3,0.1-1.9,0.1c-0.7,7.7-2,15.4-1.9,23.2
		c0.1,3.6,2.1,7.9,4.6,10.4c5.5,5.4,22.9,7,30.4,3.6C576.9,619.9,566.5,607.5,560.2,591.6z M643.3,523c14.2,9.6,24.3,22.4,31,38
		c2.9-9.2,5-18.1,2.9-27.4c-1-4.2-3.3-7.1-7.4-8.7C661.2,521.5,652.4,521.5,643.3,523z"/>
	<path class="st1" d="M545.1,858.6c-2.3,10.1-4,20.5-7.3,30.3c-3.1,9.3-8.5,12-18.3,11.1c-13.9-1.2-25.9-7.5-36.5-16.1
		c-32.9-26.3-46.7-60.3-38.9-101.9c3.7-19.5,12.8-24.2,31.7-18.4c35.7,11,63.9,46.4,67.1,84.2c0.3,3.5,0.5,7,0.8,10.5
		C544.2,858.4,544.6,858.5,545.1,858.6z M498.8,778.4c-22.7,1.8-40,11.5-52.8,29.1c-1,1.4-1.3,3.8-1,5.6c3.5,28,16.3,50.7,38.5,68.1
		c1.3,1,3.3,1.7,4.9,1.5c21-1.8,38.1-11.1,50.8-28.1c1.1-1.4,1.7-3.7,1.6-5.4c-3-28.3-15.5-51.3-38.1-68.7
		C501.2,779.5,499.5,778.8,498.8,778.4z M489.1,771.7c-9.4-4.6-17.5-8.1-26.5-7.9c-2.8,0.1-6,1.1-8.2,2.8c-6.1,4.7-10.9,21.3-9,29.4
		C456.9,783.3,471.1,775.5,489.1,771.7z M540.9,864.7c-12.4,13.5-26.7,21.2-43.5,25c8.8,4.9,17.9,9,28.1,7.4
		c2.8-0.4,5.9-2.6,7.6-4.9C538.7,884.6,540.1,875.4,540.9,864.7z"/>
	<path class="st1" d="M150.4,18.8c6.2,1.1,12.5,1.8,18.6,3.3c6.5,1.6,10,6.2,11,12.8c2,12.5-1.4,24.1-6.1,35.4
		c-15.7,37.6-54.1,63.3-93.5,62.8c-22.5-0.3-30.5-9.5-25.7-31.6c9-41.8,34.4-68.4,75.9-79.3c3.2-0.8,6.5-1.4,9.8-1.8
		c3.3-0.4,6.6-0.6,10-0.8C150.3,19.2,150.4,19,150.4,18.8z M105,127.3c0.9-0.2,1.6-0.3,2.2-0.5c27.2-8.5,47.7-25.2,61-50.5
		c0.8-1.6,1-3.9,0.5-5.6c-5.6-20.2-17.8-35.1-36.6-44.5c-1.6-0.8-3.9-1-5.6-0.5C99,33.6,78.7,50.4,65.7,75.9
		c-0.8,1.6-1.2,3.9-0.7,5.6c5.6,20.4,18.1,35.3,37,44.6C103.1,126.6,104.2,127,105,127.3z M60.2,91.7c-0.6,0-1.3,0-1.9,0
		c-0.7,7.7-2.1,15.4-1.9,23.1c0.1,3.7,2.1,8.7,5,10.7c9,6.4,19.5,5.5,29.8,3.9C76.9,120,66.5,107.5,60.2,91.7z M143.7,21.3
		c-0.3,0.7-0.5,1.4-0.8,2.1c14.5,9.1,24.6,21.9,31.9,37.6c1.7-7.9,3-15.6,3-23.3c0-8.2-3.2-12.2-11.1-13.8
		C159.2,22.4,151.4,22.1,143.7,21.3z"/>
	<path class="st1" d="M801.1,797c-47.1-0.2-90.9-38.2-97.7-84.8c-2.7-18.8,3.9-27,22.6-28.2c49.9-3.3,96.7,34.7,103.6,84.1
		c2.8,19.7-4.1,28-24.1,28.9C804.1,797.1,802.6,797,801.1,797z M819.3,743.6c-0.1-0.6-0.1-1.1-0.2-1.5c-0.4-0.9-0.8-1.8-1.3-2.7
		c-13.1-25-33.2-41.6-60.4-49.4c-1.8-0.5-4.4-0.4-6.1,0.5c-18.6,9.3-30.7,24.1-36.2,44.1c-0.5,2-0.3,4.7,0.6,6.5
		c13.2,24.6,33.2,41.2,60,49.4c2,0.6,4.7,0.4,6.6-0.6c18.4-9.1,30.5-23.7,36.3-43.5C818.8,745.5,819,744.5,819.3,743.6z
		 M825.7,756.2c-0.8-0.1-1.6-0.3-2.4-0.4c-6.2,16-16.8,28.3-32,38.1c9.9,1.1,18.3,1.1,26.5-1.7c5.6-1.9,9.4-5.5,9.4-11.5
		C827.2,772.5,826.3,764.3,825.7,756.2z M709.4,726.5c6.6-17.1,16.9-29.8,31-39.4c-9.2-1.4-17.8-1.3-26.3,1.8
		c-4.9,1.8-7.4,5.5-8.2,10.4C704.6,708.2,706.1,716.8,709.4,726.5z"/>
	<path class="st1" d="M152.1,519.2c4.1,0.6,10.1,1.2,15.9,2.5c7.3,1.6,11.2,6.6,12.2,14c1.6,12-1.6,23.1-6.1,34
		c-15.8,38.3-54.6,64.3-94.7,63.2c-4.6-0.1-9.3-1-13.7-2.2c-7.4-2-11.4-7-11.9-14.8c-1.1-18,4.9-34.2,14.2-49.1
		C87,536.5,115.1,521.8,152.1,519.2z M104.9,627.3c1-0.2,1.6-0.3,2.3-0.5c27.4-8.5,48-25.3,61.3-50.9c0.8-1.5,0.8-3.9,0.3-5.7
		c-5.6-19.8-17.5-34.5-35.9-43.8c-2-1-4.9-1.2-7-0.6c-26.9,7.9-46.9,24.4-59.7,49.4c-1,2-1.4,4.9-0.8,7
		c5.7,19.8,17.9,34.3,36.2,43.6C102.6,626.5,103.9,626.9,104.9,627.3z M90.8,631.3c0-0.5-0.1-1-0.1-1.6c-6-5.6-12.6-10.8-17.9-17.1
		c-5.2-6.3-9-13.7-13.5-20.6c-1.8,7.7-3,15.7-3.1,23.7c-0.1,6.5,3.6,11.3,10.1,12.5C74.4,629.7,82.7,630.3,90.8,631.3z M143.4,522.4
		c6.4,6.2,12.9,11.4,18.1,17.7c5.1,6.2,8.8,13.6,13.2,20.8c2.6-9.2,4.5-18,2.5-27.3c-0.9-4.2-3.3-7.1-7.4-8.7
		C161.3,521.5,152.4,521.5,143.4,522.4z"/>
	<path class="st1" d="M416.5,773.6c-1.1,2.7-1.8,5.2-3,7.2c-8.7,14.2-20,25.7-34.2,34.3c-6.9,4.2-8.6,3.8-14.2-1.8
		c-2.4-2.3-4.6-4.9-7.1-7c-3.5-2.9-3.8-6.2-1.8-9.8c9.1-16.6,22-29.6,38.7-38.6c3.7-2,6.9-1.4,9.8,1.9c2.8,3.3,6.2,6.1,9.1,9.3
		C414.8,770.4,415.5,772,416.5,773.6z M359.7,806c3.1,2.6,6,4.8,8.5,7.4c2.2,2.4,4.5,2.8,7,1.2c4.2-2.6,8.6-5.2,12.4-8.3
		c9.6-7.6,17.9-16.4,23.9-27.2c1.1-2.1,2.1-5.6,1.1-7.2c-2.2-3.7-5.7-6.6-8.8-9.9C393.5,781.4,379.4,795.5,359.7,806z M401.6,760.1
		c-2.2-0.1-4.3-0.9-5.3-0.1c-8.5,6.3-17.3,12.4-24.8,19.7c-5.4,5.2-9.1,12.1-13.4,18.4c-0.7,1-0.3,2.8-0.4,4.2
		c1.4-0.1,2.8,0,4.2-0.2c0.9-0.2,1.9-0.7,2.7-1.2c14.3-8.8,25.8-20.3,34.4-34.7C399.8,764.7,400.3,763.1,401.6,760.1z"/>
	<path class="st1" d="M898,256.9c4.5,0,18.4,13.5,17.9,16.9c-0.4,2.6-1.3,5.2-2.6,7.4c-8.6,14-19.9,25.4-33.9,34
		c-7.1,4.3-8.7,3.9-14.6-2.1c-2.1-2.1-4.1-4.5-6.4-6.3c-4.1-3.2-4.3-7.2-1.8-11c4.2-6.3,8.3-13,13.7-18.3c6.9-6.8,15-12.6,22.7-18.6
		C894.5,257.6,896.9,257.3,898,256.9z M859.9,306c3,2.6,5.8,4.7,8.1,7.3c2.3,2.6,4.7,3,7.4,1.3c4.2-2.7,8.6-5.2,12.4-8.3
		c9.6-7.8,18.2-16.6,24-27.7c1-2,1.4-5.4,0.3-7.1c-2.1-3.5-5.3-6.3-8.3-9.5C893.7,281.3,879.6,295.3,859.9,306z M901.2,259.9
		c-0.5-0.5-1-1-1.5-1.5c-3.2,1.6-6.8,2.6-9.4,4.8c-7.4,6.1-14.8,12.4-21.4,19.3c-4.3,4.5-7.3,10.2-10.7,15.5
		c-0.7,1.1-0.3,2.8-0.4,4.2c1.4,0,2.8,0.1,4.2-0.2c0.9-0.2,1.9-0.7,2.7-1.2c14.3-8.8,25.9-20.2,34.5-34.7
		C900,264.3,900.4,262,901.2,259.9z"/>
	<path class="st1" d="M398,256.9c4.4,0,18.2,13.4,17.8,16.9c-0.3,2.4-1.1,4.9-2.4,7c-8.6,14.2-20,25.8-34.2,34.4
		c-7.2,4.4-8.6,4-14.6-2.1c-2-2-3.8-4.3-6-6c-4.8-3.6-4.3-7.8-1.8-12.3c5.9-10.7,14.1-19.3,23.4-27.1c4.1-3.4,8.6-6.2,13.1-9.1
		C395,257.6,397,257.2,398,256.9z M359.6,306.1c2.6,2.1,5.4,3.6,7.2,5.9c3.5,4.4,7.3,4.4,11.1,1.3c8.4-7,17-13.9,24.7-21.6
		c4.2-4.1,7.1-9.6,10.1-14.8c0.8-1.3,0.7-4.1-0.2-5.4c-2.4-3.4-5.5-6.4-8.6-9.9C393.7,281.1,380.8,294,359.6,306.1z M401.2,260
		c-0.5-0.5-1-1-1.6-1.5c-3,1.5-6.3,2.6-9.1,4.5c-11.8,7.8-21.6,17.7-29.5,29.4c-1.3,1.9-2.4,4-3.2,6.2c-0.4,1.1-0.2,2.5-0.3,3.7
		c1.2,0,2.5,0.2,3.7,0c1.1-0.2,2.2-0.8,3.2-1.4c14.2-8.7,25.6-20,34.2-34.2C399.9,264.6,400.4,262.2,401.2,260z"/>
	<path class="st1" d="M899,756.5c1.2,0.5,2.5,0.7,3.3,1.4c4.3,4.2,8.7,8.3,12.6,12.8c1,1.2,1.1,4,0.4,5.5c-1.5,3.7-3.4,7.3-5.7,10.5
		c-8,11-17.5,20.5-29.1,27.7c-8.1,5-9.7,4.7-16.2-1.8c-1.8-1.8-3.5-3.5-5.3-5.3c-4.9-4.9-5.4-6.6-2-12.6c8.8-15.1,20.9-27.1,36-35.9
		C894.8,757.7,897,757.3,899,756.5z M904.9,762.9c-6.9,8.6-12.6,17-19.7,24.1c-7.2,7.2-15.8,13-24.2,19.8c1.7,1.6,4.5,3.5,6.6,6
		c2.7,3.2,5.5,3.4,8.7,1.3c4-2.6,8.2-5.1,11.9-8.2c9.5-7.9,18.2-16.7,23.9-27.9c0.9-1.8,1.1-5.1,0.1-6.7
		C910.1,767.9,906.9,765.1,904.9,762.9z M901.4,760.5c-1.3-0.5-2.6-1.4-3.5-1.1c-2.5,0.9-5,2-7.1,3.5c-12.1,8-22.1,18.1-30.1,30.2
		c-1.3,1.9-2.3,4.1-3.1,6.2c-1.1,2.9-0.1,4.3,3.1,3.2c0.9-0.3,1.9-0.6,2.8-1.1c15.1-8.8,27.1-20.8,35.9-35.9
		C900.1,764.1,900.5,762.7,901.4,760.5z"/>
	<path class="st1" d="M711.5,591.7c15.4,0,28,12.4,28.2,27.8c0.2,15.3-13,28.5-28.3,28.3c-15.4-0.2-27.9-12.8-27.8-28.2
		C683.5,604.2,696.1,591.7,711.5,591.7z M685.2,621.5c0.1-0.6-0.2,0.1-0.1,0.7c0.2,1.6,0.4,3.3,1,4.9c3.4,10.4,10.5,16.6,21.2,18.8
		c9.3,2,15.1-3.1,20-9.8c3.5-4.8,3.5-9.9,0.7-15c-2.8-5-7.1-7.8-12.7-7c-5.5,0.8-10.9,2.7-16.3,4.1
		C694.6,619.3,690.2,620.3,685.2,621.5z M685.2,617.7c3.8-0.5,7-0.6,10-1.4c5.3-1.4,10.3-3.8,15.7-4.9c11-2.3,19.5,2.8,21.6,13.1
		c0.8,3.8-0.3,8-0.4,11.4c6.4-6.1,8.1-18.1,3.4-27.8c-5-10.3-16.5-16.5-27.5-14.8C695.9,595.1,687.3,603.9,685.2,617.7z"/>
	<path class="st1" d="M711.4,91.7c15.5-0.1,28.1,12.3,28.3,27.7c0.2,15.4-12.8,28.4-28.2,28.4c-15.3-0.1-28-12.8-27.9-28.1
		C683.6,104.2,695.9,91.8,711.4,91.7z M685.1,121.3c0.2,1.3,0.3,3.8,1.1,6.1c3.2,9.8,10,15.8,20,18.3c8.3,2.1,14.5-1.2,19.6-7.5
		c4.8-5.9,5.5-11.2,2.1-17.5c-3-5.4-8.3-7.9-15.4-6.5c-5,1-9.8,3-14.8,4.4C693.8,119.7,689.8,120.4,685.1,121.3z M732.1,136.1
		c7.1-8.1,8.2-20.3,2.3-30.1c-6.1-10.2-18.1-15.1-29.7-12c-10.5,2.8-18.5,12.1-19,23.6c3.3-0.4,6.5-0.5,9.5-1.2
		c6.4-1.6,12.6-4.3,19.1-5.1c9.4-1.2,16.3,4,18.2,13.2C733.2,128.2,732.2,132.4,732.1,136.1z"/>
	<path class="st1" d="M211.5,91.7c15.3-0.1,28,12.5,28.2,27.8c0.1,15.2-12.5,28.1-27.8,28.3c-15.5,0.2-28.3-12.6-28.3-28.2
		C183.6,104.2,196,91.7,211.5,91.7z M185.1,121.6c0.2,1.1,0.3,3.4,1,5.6c3.2,10,10.1,16.1,20.3,18.6c8.9,2.2,15-1.9,20.2-8.5
		c4-5.1,4.6-10.5,1.5-16.2c-3.1-5.7-8.2-7.9-14.2-6.9c-4.9,0.8-9.6,2.6-14.4,3.9C194.9,119.2,190.3,120.3,185.1,121.6z M232.1,135.9
		c6.6-6.2,8.2-18.7,3-28.6c-5.6-10.7-17.7-16.2-29.5-13.5c-11.2,2.6-19.6,12.2-19.9,23.8c3.3-0.4,6.5-0.5,9.5-1.3
		c5.3-1.4,10.3-3.8,15.7-4.9c11.1-2.3,19.4,2.7,21.6,13.1C233.2,128.3,232.2,132.5,232.1,135.9z"/>
	<path class="st1" d="M211.8,591.7c15.4,0.1,28,12.8,27.9,28.1c-0.1,15.3-12.9,28-28.1,28c-15.3,0-28-12.7-28-28
		C183.5,604.1,196.1,591.6,211.8,591.7z M185.1,621.5c0.2,1.1,0.3,3.4,1,5.6c3.4,10.4,10.5,16.6,21.2,18.8
		c9.3,1.9,15.1-3.1,20.1-9.8c3.5-4.8,3.4-9.9,0.6-15c-2.8-5.1-7.1-7.7-12.7-7c-5.5,0.8-10.9,2.7-16.3,4
		C194.6,619.3,190.2,620.3,185.1,621.5z M232.4,635.7c6.6-7.1,7.9-19.3,2.3-29.1c-5.7-10-17.3-15.3-28.4-12.9
		c-11.5,2.5-19.7,11.3-20.8,23.8c3.3-0.4,6.5-0.3,9.5-1.1c5.3-1.4,10.3-3.8,15.7-4.9c11-2.3,19,2.2,21.6,12.3
		C233.2,627.7,232.4,632.1,232.4,635.7z"/>
	<path class="st1" d="M144.6,810.8c0.1-15.2,12.7-27.6,27.9-27.3c15.1,0.3,27.2,12.6,27.2,27.6c0,15.1-12.5,27.6-27.7,27.6
		C156.8,838.5,144.5,826.1,144.6,810.8z M171.6,785.2c-0.4,16.8-8.6,27.6-24.3,32.7c3,12,14.8,20.6,25.4,18.4
		c0.4-16.6,8.9-27.2,24.4-32.4C193.6,792.1,183.7,784.7,171.6,785.2z M197.6,807.1c-13.3,0.2-25.8,19.9-21.8,29.5
		C190.7,834.4,200.2,821.6,197.6,807.1z M168.8,785.3c-15.3,2.2-26.1,17.1-21.8,29.7C159.9,813.2,170.4,799,168.8,785.3z"/>
	<path class="st1" d="M644.6,811c-0.1-15.3,12.3-27.6,27.6-27.6c15.1,0,27.6,12.7,27.5,27.8c-0.1,14.9-12.3,27.1-27.4,27.4
		C657.2,838.9,644.7,826.3,644.6,811z M672.6,836.6c0.3-16.7,8.9-27.5,24.5-32.7c-4-12.4-15.1-20.3-25.5-18.3
		c-0.4,16.5-8.8,27.3-24.4,32.4C650.6,830,661.3,837.8,672.6,836.6z M675.5,836.5c14.5-1.1,25.1-15.4,22-29.4
		C684.8,808.1,673.3,823.5,675.5,836.5z M646.7,814.9c12.8-0.8,25.4-18,21.6-29.5C653.3,787.9,643.5,801.3,646.7,814.9z"/>
	<path class="st1" d="M192.2,328.9c-6.9,10.5-23.9,12.7-35.7,4.8c-12.5-8.5-15.7-26-7-38.4c8.6-12.3,25.6-15.5,38.1-7.1
		c12.6,8.5,15.9,25.9,7.3,38.3c-0.7,1-1.9,1.7-2.8,2.6c0.7-1.4,1.4-2.9,2.2-4.2c3.3-5.6,4.8-11.4,3.4-17.9
		c-13.2,1.6-24.6,17-21.8,31.1C181.5,334.9,186.9,331.9,192.2,328.9z M171.6,285.5c-0.4,16.5-8.6,27.3-24.3,32.4
		c3,12,14.8,20.6,25.6,18.4c-0.4-7.5,1.3-14.8,6.6-20.2c4.9-5.1,11.1-8.9,17.2-13.6C193.6,291.9,182.6,283.9,171.6,285.5z
		 M146.6,315c13.3-1.6,24.7-17.2,22-29.6C153.9,287.2,144,300.4,146.6,315z"/>
	<path class="st1" d="M692,292.9c9.7,6.8,10.6,28.2,0,36.2c0.7-1.4,1.4-2.9,2.2-4.2c3.3-5.6,4.8-11.4,3.4-17.9
		c-13.2,1.6-24.5,16.9-21.8,31.1c5.7-3.2,11-6.2,16.4-9.1c-6.1,9.2-21,12.4-32.2,6.8c-14.3-7-19.7-25-11.5-38.8
		c8-13.6,26.1-17.6,39.1-8.7c1.8,1.2,3.1,3.2,4.7,4.9c-1.3-0.9-2.7-1.8-4-2.7c-4.9-3.5-10.2-5.9-16.6-5.2
		c-0.5,17-8.8,27.8-24.4,32.8c3.4,12,14,19.8,25.4,18.7c0.3-16.7,8.8-27.5,25-32.8C695.6,299.9,693.8,296.4,692,292.9z M646.8,314.9
		c12.7-1.1,24.2-16.6,21.9-29.5C654.1,286.8,643.1,301.5,646.8,314.9z"/>
	<path class="st1" d="M371,55.4C370.9,40,383,27.7,398.3,27.6c15.3-0.1,27.7,12.2,27.7,27.5c0,15-12.2,27.5-27.1,27.6
		C383.7,82.9,371,70.5,371,55.4z M421.7,66.5c-14.7-7.9-20.6-20.3-18.1-36.6c-11.5-2.8-23,2.8-28.4,13.9
		c14.7,7.9,20.6,20.3,18.1,36.7C405.5,82.9,416.6,77.5,421.7,66.5z M390.6,79.7c3.9-13.4-3.4-28.4-16.2-33.4
		C368.2,58.8,376,75.1,390.6,79.7z M406.5,30.6c-4.7,12.2,3.2,28.5,16.1,33.2C428.6,51.1,420.7,34.7,406.5,30.6z"/>
	<path class="st1" d="M871,55.3c-0.1-15.4,12.1-27.7,27.4-27.7c15.4,0,27.7,12.2,27.6,27.5c0,15.2-12.5,27.7-27.7,27.6
		C883.3,82.6,871,70.3,871,55.3z M875.2,43.7c14.7,7.9,20.6,20.3,18.1,36.7c12.1,2.6,23.1-2.9,28.3-13.9
		c-14.8-7.8-20.6-20.3-18.1-36.6C892,27,880.5,32.7,875.2,43.7z M922.7,64c5.5-14.2-4.4-33.3-16.7-32.7
		C902.8,44.7,909.9,58.8,922.7,64z M890.6,79.7c3.8-13.6-3.7-28.7-16.3-33.4C868.3,59.1,876.1,75.3,890.6,79.7z"/>
	<path class="st1" d="M383.1,577.2c-11.1-5.5-15.5-21.7-9.3-34.4c6.6-13.6,23.5-19.2,37.1-12.3c13.8,7,19.1,23.9,11.9,37.6
		c-7.1,13.4-24.2,18.5-37.4,11.2c-0.9-0.5-1.6-1.5-2.5-2.2c2.5,0.9,5.1,1.8,7.6,2.7c4-13.6-4.3-30.1-17.3-33.4
		c-0.3,3.9-0.8,7.6-0.7,11.3C372.8,565.9,378.1,571.5,383.1,577.2z M421.8,566.3c-7.2-3.3-13-8.2-15.4-15.3
		c-2.3-6.7-2.9-14-4.4-21.5c-9.8-2.5-21.3,3.1-26.8,14.2c14.7,7.9,20.7,20.3,18.1,36.7C405.3,583,416.3,577.6,421.8,566.3z
		 M422.6,564c5.9-13.3-2.2-29.7-16.2-33.4C402.1,542.9,409.3,558.1,422.6,564z"/>
	<path class="st1" d="M876.8,538.8c6.1-9.6,18.1-12.5,27.5-10.6c10.9,2.2,19.4,11.2,21.4,22.4c1.9,10.3-2.9,21.4-11.5,26.7
		c-0.2-0.2-0.3-0.3-0.5-0.5c2.8-3.2,5.6-6.4,8.7-9.8c-15.5-8.3-21.4-20.7-18.8-37.3c-11-2.2-19.3,2.1-26.4,9.6
		C877.1,539.1,876.9,538.9,876.8,538.8z M922.5,563.9c6.8-12.4-3.5-31.5-16.2-33C902.3,543.7,909.7,558.8,922.5,563.9z"/>
	<path class="st1" d="M914.2,577.2c-10.1,8.2-25.7,7-35.3-2.7c-9.8-9.9-10.7-25.6-2.2-35.7c0.2,0.2,0.3,0.3,0.5,0.5
		c-0.7,1.5-1.4,2.9-2.1,4.4c14.9,8.1,20.7,20.5,18.2,36.9c7.7,1.8,14.2-0.4,20.4-3.8C913.9,576.9,914.1,577.1,914.2,577.2z
		 M890.5,579.6c4.3-12.7-3.7-29-16.3-33.2C868.5,559.7,876.4,575.8,890.5,579.6z"/>
	<path class="st1" d="M365.1,168.9c-5.7,3.7-11.5,7.4-17.2,11.1C353.6,176.4,359.4,172.6,365.1,168.9z"/>
	<path class="st1" d="M786.1,211.5c1.4-0.9,2.5-1.7,4.3-2.9c0.2,9.8,5.5,14.3,14.7,15.4c-0.7,1.4-1.4,2.6-2.2,4
		c1.1,1.5,2.2,3.1,3.4,4.8c1.1,1.6,2.3,3.3,3.4,4.8c1.7,0,3.3,0,4.8,0c-0.6,1.2-1.4,2.3-1.6,3.5c-0.3,1.4-0.2,3-0.3,4.2
		c-2.7-0.2-5.1,0.1-7-0.7c-0.8-0.3-0.4-3.2-0.6-4.9c0.5-0.1,0.9-0.2,1.4-0.3c-2.1-3-4.2-5.9-6.1-8.6c-2,0.2-3.6,0.4-5.3,0.6
		c0.4-1.6,0.8-3.2,1.3-5.4c-2.4-2.4-5.2-5.2-8.2-8.2c-1.6,0.8-3,1.4-5.3,2.6c0.3-2.5,0.6-4.1,0.8-6c-2.9-2-5.9-4-8.5-5.8
		c-1.9,0.9-3.4,1.6-4.9,2.2c-0.2-1.5-0.4-2.9-0.7-5.3c-2.7-1.2-6.1-2.8-9.4-4.4c-1.3,1.3-2.4,2.5-3.6,3.7c-1.4-2.7-2.6-4.9-3.5-7.3
		c-0.2-0.4,0.8-1.6,1.5-2c0.7-0.4,1.9-0.1,2.7-0.4c1.2-0.6,2.1-1.5,3.2-2.3c0.4,1.5,0.7,3,1.1,4.8c2.5,1.2,5.4,2.6,8.3,3.7
		c0.9,0.4,2.1,0.5,3.1,0.3c1.1-0.2,2.2-1,3.2-1.5c0.1,1.5,0.3,3,0.5,4.9C779.4,207,782.6,209.1,786.1,211.5z"/>
	<path class="st1" d="M260.6,201.4c-2.1,1.3-3.3,2.1-4.6,2.9c-0.3-1.2-0.4-2.4-0.9-3.5c-0.3-0.8-1.6-1.4-1.6-2.2
		c0-1,0.7-2.1,1.2-3.1c0,0,0.4,0.1,0.5,0c1.7-0.9,3.3-1.9,4.9-2.8c0.6,1.7,0.9,4.7,1.7,4.9c4.2,0.7,7.4,7.2,12.7,2.5
		c0.2-0.2,2.2,0.9,2.2,1c-1.9,5.3,3.3,5.5,5.6,7.7c1.1,1,2.4,1.7,3.7,2.5c1.4-0.9,2.7-1.7,5.2-3.3c-0.5,3-0.8,4.7-1.2,6.9
		c5.3,1.8,5.9,11.5,15.6,7.3c-1.4,2.9-2,4.3-2.8,5.9c3.9,3.2,4.1,10.8,11.6,9.1c-0.6,2.7-1,5-1.8,7.3c-0.2,0.5-1.6,1-2.3,0.9
		c-0.9-0.1-1.6-1.2-2.4-1.4c-1.3-0.3-2.6-0.2-3.9-0.2c0.6-1.4,1.2-2.8,2-4.7c-1.8-2.5-3.8-5.5-5.6-8c-2.3,0-4,0-5.7,0
		c0.4-1.4,0.9-2.9,1.5-4.8c-2.6-2.6-5.4-5.5-8.4-8.5c-1.4,0.8-2.7,1.4-4.9,2.6c1.9-7.9-4.1-9.1-7.9-11.8c-1.9,0.7-3.5,1.4-5.1,2
		c0-1.5,0-3.1,0-5C266.7,204.2,263.5,202.7,260.6,201.4z"/>
	<path class="st1" d="M261.9,697.8c2.4,1.1,5.2,2.5,8.1,3.7c0.9,0.4,2.1,0.2,3.1,0c1.1-0.2,2.2-0.8,3.2-1.2c0.1,1.4,0.2,2.7,0.3,4.7
		c2.7,1.9,6,4.1,9.4,6.4c1.4-0.9,2.6-1.7,5.1-3.3c-0.4,2.9-0.7,4.6-1,6.3c2.6,2.6,5.2,5.4,7.9,8.1c0.7,0.6,1.6,1.3,2.4,1.4
		c1.3,0.1,2.7-0.2,4-0.3c-0.5,1.4-0.9,2.9-1.4,4.4c5.7,8.5,5.7,8.5,11.3,9.6c-0.5,2.3-1,4.6-1.7,6.9c-0.2,0.5-1.2,0.9-1.9,1.2
		c-0.2,0.1-0.6-0.2-0.8-0.4c-1.7-1.7-9.2,0.9-4.4-6.2c0.8-1.2-3.6-5.8-5.3-8.2c-2.3,0.1-3.9,0.2-5.5,0.3c0.4-1.4,0.8-2.9,1.2-4.3
		c0.5-0.4,1-0.8,1.5-1.1c-1.8-1.2-3.7-2.3-5.4-3.7c-1.6-1.2-2.9-2.7-4.5-4.2c-1.3,0.7-2.5,1.4-4.8,2.7c2-8-4.1-9.1-7.9-11.9
		c-1.9,0.7-3.5,1.3-5.1,2c0-1.5,0-3.1,0-5c-3.2-1.5-6.5-3-9-4.2c-2.2,1.1-3.8,1.8-5.3,2.6c-0.9-2.6-2.9-5.6-2.2-7.6
		c0.7-1.8,4.4-2.5,6.7-3.7C260.6,694.1,261.1,695.6,261.9,697.8z"/>
	<path class="st1" d="M609,44.1c-3.2,2.2-6.5,4.4-10,6.8c0.4,1.6,0.7,3.1,1.2,5.3c-7.5-3.5-9.4,2.9-12.7,5.7c0.4,2,0.7,3.6,1.1,5.2
		c-1.5-0.2-3-0.4-5-0.7c-1.9,2.7-4.1,5.7-6.2,8.6c0.9,1.6,1.7,3,2.5,4.3c-1.4,0.1-2.9-0.1-4.3,0.4c-1.3,0.4-2.4,1.4-3.7,2.2
		c-1-3.1-1.9-5.8-3.1-9.3c1.9,0.3,3.4,0.5,5.1,0.7c2.2-3.1,4.5-6.3,6.8-9.5c-0.7-1.5-1.3-2.9-2.4-5.3c7.9,3,9.6-3.9,13.6-6.5
		c-0.2-1.9-0.3-3.7-0.5-5.5c1.5,0.4,2.9,0.8,5,1.4c3-2.1,6.7-4.6,10.7-7.3c-0.1-1.4-0.2-2.9-0.3-4.3c2.8,0.1,5.5,0.8,7.9,0.2
		c2.7-0.6,5.2-2.2,7.6-3.3c0.2-1.8,0.4-3.4,0.6-5c2.7,1.2,4.7,2.1,6.7,3.1c0.6,0.3,1.3,1.4,1.1,1.9c-0.5,2-1,4.2-2.3,5.7
		c-0.6,0.6-3.1-0.4-4.7-0.7c0-0.5,0-0.9,0-1.4c-3.3,1.5-6.6,2.9-10,4.5c0.1,1.9,0.2,3.5,0.3,6.6C611.8,46.3,610.5,45.3,609,44.1z"/>
	<path class="st1" d="M533.1,351.9c-2.3-1.3-4.4-2.7-7.4-4.4c1.3-1.1,2.7-2.2,4.2-3.5c-0.9-3.4-1.8-6.9-2.5-9.9
		c-2.1-0.6-3.6-1.1-5.2-1.6c0.9-1.2,1.7-2.4,3.1-4.4c-1.3-3-2.9-6.7-4.4-10.1c-2-0.4-3.6-0.7-5.2-1c0.7-1.4,1.3-2.8,2.1-4.5
		c-1.9-2.8-4-5.8-6-8.7c-1.9,0.5-3.5,0.8-6.6,1.5c1.5-2.7,2.2-4,3.3-5.9c-2.7-2.3-5.6-4.8-8.5-7.4c-0.9,0.3-2.4,0.8-3.9,1.3
		c0.2-1.4,0.5-2.9,0.5-4.3c0-0.7-1-1.4-1-2.1c0-0.9,0.4-2.5,1-2.7c1.9-0.5,4.1-1.1,6-0.6c0.9,0.2,1.2,2.7,1.7,4.2
		c-0.5,0.2-1,0.5-1.5,0.7c3,2.7,5.9,5.3,9.1,8.2c0.9-0.1,2.5-0.3,4-0.4c-0.3,1.6-0.6,3.2-1,5.2c1.9,2.7,4.1,5.9,6,8.7
		c1.9,0.1,3.6,0.2,5.2,0.3c-0.7,1.5-1.4,3-2.2,4.9c1.4,3.2,3,6.9,4.6,10.5c0.3,0.7,0.9,1.5,1.5,1.7c1.2,0.5,2.6,0.7,3.8,1
		c-0.9,1.2-1.8,2.4-2.9,3.9c0.6,2.6,1.1,5.6,2.1,8.4c0.4,1.2,2.1,1.9,2.9,3.1c0.6,0.9,1.5,2.6,1.1,3.3
		C536.2,349.1,534.6,350.3,533.1,351.9z"/>
	<path class="st1" d="M614.1,541.3c-0.3,2.4-0.4,3.9-0.6,5.4c-1.5-0.7-2.9-1.4-4.9-2.4c-2.9,2-6.1,4.2-9.6,6.6
		c0.4,1.6,0.7,3.1,1.3,5.6c-2.3-0.8-3.8-1.2-5.7-1.9c-2.5,2.4-5,5-7.2,7.1c0.5,2.3,0.8,3.9,1.1,5.5c-1.5-0.2-2.9-0.4-5.1-0.7
		c-1.9,2.6-4.1,5.7-6.2,8.6c0.9,1.6,1.7,3,2.5,4.3c-1.4,0.1-2.9,0-4.3,0.4c-1.3,0.4-2.4,1.4-3.6,2.1c-1.1-2.6-2.3-4.7-2.8-7.1
		c-0.1-0.5,2.5-1.6,3.8-2.4c0.3,0.4,0.5,0.8,0.8,1.1c2.3-3.2,4.6-6.5,6.8-9.5c-0.5-1.6-1-3.1-1.5-4.5c1.6,0,3.2,0,5.2,0
		c2.3-2.4,5-5.1,7.7-7.7c-0.4-1.8-0.8-3.5-1.5-6.4c2.6,1.4,4,2.2,5.9,3.2c2.9-4.6,11.6-4.1,10.8-13.1c4.7,4.1,8.4,0.9,12.4-0.8
		c1.8-0.8,4.1-1.2,2.7-4.1c-0.2-0.3,0.2-1.2,0.4-1.3c0.8-0.2,2-0.5,2.5-0.1c1.9,1.5,3.9,3.1,5.1,5.1c0.5,0.8-0.9,2.9-1.6,4.3
		c-0.3,0.7-1.3,1.7-1.4,1.7c-1.3-0.9-2.4-1.9-3.9-3.1C620.3,538.5,617,540,614.1,541.3z"/>
	<path class="st1" d="M512.2,804.4c-2.3,0-4,0-5.6,0c0.5-1.4,0.9-2.9,1.6-5c-2.4-2.1-5.3-4.6-8.3-7.2c-0.9,0.3-2.3,0.8-3.8,1.2
		c0.1-1.3,0.4-2.6,0.4-3.9c0-0.7-0.3-1.5-0.6-2.1c-1.2-2.6-0.3-3.4,2.3-2.8c0.7,0.2,1.5,0.6,2.2,0.5c1.3-0.2,2.5-0.7,3.8-1
		c-0.2,1.5-0.3,3-0.7,5.9c1.2,1,4,2.5,5.4,4.8c2.1,3.4,5.7,0.3,7,1.9c1.2,1.6,0,4.9,0.8,7.1c1,2.6,3.1,4.7,4.6,7
		c1.7-0.2,3.3-0.5,6.5-0.9c-6.6,7.2,0.1,11.5,1.2,16.7c0.1,0.3,0.3,0.8,0.5,0.8c7-0.2,2.7,2.3,2.4,5.6c-0.3,3.3-1.5,10.1,5.4,11.4
		c0.3,0.1,0.8,2.1,0.4,2.7c-0.9,1.5-2.1,2.9-3.4,4.1c-0.5,0.5-1.9,0.5-2.5,0.2c-1.8-1-3.4-2.4-5.7-4.1c1-0.9,2.2-1.9,4-3.4
		c-0.8-3.1-1.7-6.8-2.5-9.8c-2.2-0.7-3.7-1.1-5.2-1.6c0.9-1.2,1.8-2.4,3.2-4.2c-1.4-3.2-3-6.9-4.7-10.8c-1.8,0-3.4,0-5.8,0
		c1.3-2,2.1-3.3,3.1-4.8C515.9,809.8,513.8,806.8,512.2,804.4z"/>
	<path class="st1" d="M123.5,37c-3.2,1.4-6.3,2.9-9.4,4.3c-0.3,2-0.6,3.7-0.8,5.5c-1.3-0.7-2.7-1.5-4.5-2.5c-2.9,2-6.4,4.4-9.8,6.7
		c0.4,1.6,0.8,3,1.3,5.2C93,52.9,90.9,59,87.5,62c0.4,1.9,0.8,3.5,1.2,5.1c-1.5-0.1-2.9-0.2-5.2-0.4c-1.7,2.4-3.9,5.4-6.1,8.4
		c0.9,1.6,1.7,2.9,2.5,4.3c-1.4,0.1-2.9,0-4.2,0.5c-1.3,0.4-2.4,1.4-3.6,2.1c-1.1-2.5-2.3-4.7-2.8-7c-0.1-0.6,2.4-1.6,3.7-2.5
		c0.3,0.4,0.5,0.8,0.8,1.2c2.3-3.2,4.6-6.5,6.9-9.6c-0.5-1.6-1-3-1.5-4.5c1.6,0,3.2,0,5.2,0c2.4-2.4,5.1-5.1,7.6-7.6
		c-0.2-1.8-0.4-3.5-0.6-5.1c1.6,0.4,3.2,0.8,5.2,1.3c3.3-2.2,7-4.8,10.8-7.4c-0.1-1.4-0.3-2.8-0.5-5.5c6.5,5.1,10.6-0.4,15.5-1.7
		c0.3-1.8,0.6-3.3,0.9-4.8c1.2,0.8,2.3,1.8,3.6,2.5c1.3,0.7,4,1.4,3.9,1.6c-0.5,2.3-1.3,4.6-2.4,6.7c-0.2,0.3-2.9-0.9-4.4-1.4
		C123.7,37.7,123.6,37.4,123.5,37z"/>
	<path class="st1" d="M783.6,714.3c-2.9-2-5.9-4-8.5-5.8c-1.9,0.9-3.4,1.6-4.9,2.3c-0.2-1.5-0.4-3-0.6-5.3c-2.7-1.2-6.1-2.8-9.3-4.3
		c-1.5,1.2-2.7,2.2-3.9,3.2c-0.4-1.3-0.6-2.6-1.1-3.8c-0.4-0.8-1.7-1.4-1.8-2.1c-0.1-0.9,0.4-2.2,1.1-2.9c0.5-0.5,1.9,0,2.6-0.4
		c1.2-0.6,2.1-1.5,3.2-2.3c0.4,1.5,0.7,3,1.2,4.8c2.5,1.1,5.3,2.5,8.2,3.7c0.9,0.4,2.1,0.5,3.1,0.3c1.1-0.2,2.2-1,3.2-1.5
		c0.2,1.5,0.3,3,0.5,4.9c2.8,1.9,5.9,4,9.3,6.4c1.2-0.8,2.5-1.6,3.7-2.4c0.5,0.3,1.1,0.5,1,0.6c-2.1,7,4.3,9.3,7.7,13
		c1,1.1,4.6-0.1,5.7,1.1c0.9,0.9-0.8,4.1,0,5.7c1.4,3,3.7,5.5,5.6,8.1c1.7,0,3.2,0,4.7,0c-0.5,1.2-1.2,2.3-1.6,3.6
		c-0.2,0.7,0,1.5,0,2.3c0,2.3-0.8,3.2-3,1.8c-0.7-0.4-1.3-0.9-2.1-1.1c-1.2-0.3-2.5-0.3-3.8-0.4c0.7-1.4,1.4-2.8,2.2-4.5
		c-2-2.8-4.1-5.7-6-8.4c-2,0.2-3.7,0.4-5.3,0.5c0.4-1.6,0.8-3.2,1.3-5.3c-2.4-2.5-5.2-5.3-8-8.2c-1.8,0.8-3.1,1.5-5.5,2.6
		C783.1,717.9,783.3,716.3,783.6,714.3z"/>
	<path class="st1" d="M72,582c-1.1-2.7-2.5-4.7-2.7-6.9c-0.1-0.8,2.5-1.8,3.9-2.7c0.2,0.3,0.5,0.7,0.7,1c2.2-3.1,4.4-6.2,6.5-9.2
		c-0.4-1.8-0.8-3.3-1.2-4.9c1.5,0.1,3,0.2,5,0.3c2.2-2.4,4.7-5.2,7.6-8.3c-0.1-1.1-0.3-2.8-0.4-4.6c1.5,0.4,2.9,0.8,5.1,1.4
		c2.4-4.3,11.7-3,10.2-12.9c6.3,5.3,10.4-0.3,15.7-1.5c-0.1-1.2-0.5-2.4-0.1-3.3c0.3-0.7,1.8-1.7,2.3-1.5c1.9,0.7,3.7,1.8,5.4,3
		c0.5,0.3,0.5,1.7,0.2,2.5c-0.3,0.8-1.5,1.3-1.8,2.1c-0.5,1.2-0.7,2.5-1,3.8c-1.2-0.9-2.5-1.8-4.1-3c-2.8,1.3-6.1,2.8-9.2,4.1
		c-0.3,2.1-0.6,3.8-0.9,5.6c-1.3-0.8-2.7-1.5-4.5-2.5c-3,2-6.4,4.4-9.8,6.7c0.4,1.6,0.8,3,1.4,5.4c-2.3-0.7-3.8-1.2-5.9-1.9
		c-2.3,2.4-4.7,5.1-7,7.5c0.4,1.8,0.8,3.4,1.3,5c-1.6-0.2-3.2-0.3-5.3-0.5c-1.9,2.6-4,5.6-5.9,8.3c0.8,1.8,1.5,3.3,2.2,4.8
		c-1.3,0-2.7-0.2-3.9,0.2C74.5,580.2,73.3,581.2,72,582z"/>
	<path class="st1" d="M737.2,1000h0.3C737.5,1000,737.3,1000,737.2,1000z"/>
	<path class="st1" d="M18,1000c0,0,1-1.2,0.7-1.7c2.8-1.2,5.6-2.5,8.5-3.6c8.7-3.4,10.5-3.1,15.8,5.3c1.3,0.5,11.9,0,11.9,0
		c-8.9-31.7-27.8-48.1-54.9-48c0,16,0,32,0,48H18z M13.4,991.2C1,982,1,982,1.8,964.8c6.2-1.1,12.6-2.3,19-3.4
		c-0.8-0.8-1.6-1.7-2.3-2.5c7.8,2.2,14.2,6.5,20.5,13.4c-3.1-1.2-4.9-1.8-6.8-2.5c3.8,2.3,3.6,5.9,3.8,9.9
		c0.4,8.2-2.5,12.7-10.8,14.7c-4.2,1-7.2,1.3-10.2-1.8C14.6,992,13.9,991.6,13.4,991.2z"/>
	<path class="st1" d="M317,1000c0,0,2,0,2,0l-0.5-1.5c-0.4-0.4-0.1-0.8-0.4-1.3L318,997l0.1,0.1c-0.5-0.7-0.9-1.5-1.4-2.4
		c-10-21.3-27.1-32.8-50.7-32.5c-23.4,0.3-40,12-49.7,33.3c-0.2,0.4-0.3,0.7-0.5,1l0,0l-1.7,3.6h2.9l1.5-2l1.5,2h2l-0.1-0.1
		c0,0,0,0,0,0c0-0.1-0.2-0.3-0.2-0.3c-2.6-5.6-0.5-10,3-14.3c6.1-7.5,13.3-13.4,22.5-16.7c-9.2,8.6-14.6,19.2-17.6,31.4c0,0,0,0,0,0
		l0,0.1h2.5l0.1-0.3c0,0,0.1-0.6,0.2-0.8l0.1-0.2l0,0c4.2-14.4,10.3-27.1,25-32.4c14-5.1,26.9,0,39.4,7.7c-7.7,3.6-15,6.6-22,10.2
		c-5.8,2.9-11.9,5.7-16.7,9.9c-4.4,3.8-5.2,5.4-10.3,5.9h5l0,0c1.3-1.2,3.7-2.2,4.7-2.8c12.6-6.5,25.3-13,38-19.5
		c3.2-1.6,5.8-0.8,7.8,2c4.5,6.2,8.5,12.4,13,18.7C316.1,998.8,317.4,999.9,317,1000z"/>
	<path class="st1" d="M503,952c-12-0.5-23.1,2.3-33.2,9c-13.9,9.3-21.8,22.5-24.6,39H458c0.1-0.2,0.2-0.4,0.2-0.4
		c5.6-8.3,5.6-8.3,14.7-6c2.6,0.7,5.2,1.1,7.7,2c1.4,0.5,2.6,1.7,3.9,2.6c-0.2,0.4-0.4,0.9-0.6,1.3c0,0,0,0,0,0l-0.2,0.4h35.7
		l-0.1-0.2c0,0,0,0,0,0c-0.2-0.6-0.5-1.2-0.7-1.7c5.4-2,10.6-4.7,16.2-5.5c1.8-0.3,7.4,7.5,7.4,7.5h12.7
		C546.3,969.4,528.5,953.1,503,952z M497.5,985.4c-0.3,0.4-0.8,0.6-1.2,0.9c-13.4,9.5-13.4,9.5-28.7,4.5c-0.5-0.2-1-0.3-1.4-0.5
		c-3.4-1.8-3.9-17.7-0.7-19.8c3.9-2.5,7.7-5,11.6-7.4c-3.5,1.6-7,3.2-10.5,4.8c-0.2-0.4-0.4-0.7-0.6-1.1c5.3-3.2,10.6-6.4,16-9.5
		c0.2,0.4,0.5,0.7,0.7,1.1c-1.9,1.6-3.8,3.3-5.7,4.9c7.7-4.8,14.5,0.7,21.7,1.9c0.3,0.1,0.8,0.3,0.8,0.5c0.5,5.2,1.1,10.5,1.2,15.7
		C500.5,982.8,498.6,984.1,497.5,985.4z M537.7,971.7c-1.8-0.7-3.7-1.4-5.5-2c4.3,2.6,3.5,6.7,3.7,10.9c0.3,7.3-2.4,11.3-9.7,13.4
		c-4.8,1.4-7.8,0.5-12.1-1.8c-10.5-5.7-14-14.1-12.6-25.3c0-0.3,0.1-0.6,0.4-2.1c6-1.1,12.4-2.3,18.8-3.4c-0.8-0.8-1.5-1.7-2.3-2.5
		c0.3-0.4,0.6-0.8,0.9-1.2c6.4,4.3,12.8,8.5,19.1,12.8C538.2,970.8,538,971.3,537.7,971.7z"/>
	<path class="st1" d="M974.3,965.1c5.7-3.7,10.9-4.7,17.1-2.1c2.7,1.1,5.7,1.4,8.6,2c0-4.3,0-8.7,0-13c-11.2-0.4-21.4,3-30.6,9.2
		c-13.7,9.2-21.4,22.4-24.2,38.8l0,0.2h11.4l0.8-0.8c3-7.1,6.9-8.2,14.1-6.3c3,0.8,6.1,1.4,9.1,2.5c1.5,0.6,2.6,2,3.9,3
		c-0.3,0.4,0.5,1.3,0.5,1.3l15,0.3c0-5.4,0-10.8,0-16.3c-4.4,3-8.6,6.2-13.2,8.9c-1.7,1-4.3,1.4-6.3,1.1c-4.1-0.6-8-2.1-12.1-2.9
		c-2.9-0.6-4.1-1.9-4.4-4.9C962.5,972.3,962.6,972.7,974.3,965.1z M982.1,957.3c0.3,0.5,0.6,1,0.8,1.5c-5.4,3.2-10.8,6.3-16.3,9.5
		c-0.3-0.5-0.6-1-0.8-1.4C971.2,963.6,976.6,960.4,982.1,957.3z"/>
	<path class="st1" d="M817.1,995.5c-8.5-20.6-28.3-33.6-50.6-33.6c-21.9,0-41.9,13.1-50.2,33.4c-0.4,1-0.9,1.9-1.4,2.5
		c-0.9,1.2-0.9,2.1-0.9,2.1h3l1.3-2.3l1.7,2.3h2l-0.3-0.5c-2.2-4.9-1-9.2,2.4-13.5c6.2-7.9,13.6-14,23.2-17.5
		C738,977,730,1000,730,1000h2.2c4.3-15.1,10.4-28.3,25.4-33.7c14.1-5.2,26.9,0.2,39.5,7.7c-7.9,3.6-15.1,6.6-22.1,10.3
		c-6.3,3.3-12.6,6.8-18.4,11c-2.1,1.5-4.2,2.8-6.4,3.7c-1.4,0.5-2.2,1.2-2.2,1.2h5c0,0,0.4-0.3,0.4-0.3c14.4-10,29-17.8,44.6-22.6
		c1-0.3,2.8,0.1,3.6,0.8c6.7,5.9,11.6,13,14.7,21.9c0,0,0,0,0,0l0.1,0.2h2.7c0,0,0.2-0.9-0.6-2.1
		C817.9,997.3,817.5,996.5,817.1,995.5z"/>
</g>
</svg>
