<?xml version="1.0" encoding="utf-8"?>
<!-- Generator: Adobe Illustrator 21.1.0, SVG Export Plug-In . SVG Version: 6.00 Build 0)  -->
<svg version="1.1" id="Layer_1" xmlns="http://www.w3.org/2000/svg" xmlns:xlink="http://www.w3.org/1999/xlink" x="0px" y="0px"
	 viewBox="0 0 207.7 167.4" style="enable-background:new 0 0 207.7 167.4;" xml:space="preserve">
<g>
	<path d="M103.4,12.5c10.2,5.5,20.4,11.9,29.1,20.6c4.6,4.7,6.4,7.7,6.5,11.1l0,0.1l0,0.1c0,0.6-0.1,1.7-0.2,2.8
		c-0.1,0.6-0.1,1.1-0.2,1.7l-0.8,8.7l8.6,1.9c7.6,1.7,13.3,5.6,17.3,11.8c4,6.3,5,13,3.2,21.3l-2.4,10.9l11,1.2
		c4.9,0.6,8.8,2.2,12.2,5.3l0.3,0.3l0.3,0.2c6,4.8,9.4,11.8,9.3,19.2l0,0.1v0.1v2.8c0,13.6-11,24.6-24.6,24.6H34.5
		c-13.6,0-24.6-11-24.6-24.6v-2.8c0-9.3,5.2-17.7,13.5-22l0.3-0.2l0.3-0.2c2.1-1.3,4.6-2.2,7.5-2.7c0.2,0,0.4-0.1,0.6-0.1
		c0.3,0,0.6-0.1,0.9-0.1l10.3-1.5l-1.9-10.2c-1.2-6.2-1.1-10.6,0.1-14.5c3-9.5,8.7-15.2,17.9-18l0.1,0l0.1,0
		c5.8-1.8,9.2-5.6,10.1-11.3c1-6.1,7.2-11.1,11.7-11.2l0.1,0l0.1,0c6.4-0.2,12.2-4.2,15.3-10.4C99.3,22.5,101.4,17.4,103.4,12.5
		 M99.8,0C96.8,0,96,3.6,96,3.6c-0.2,0.8-0.4,1.5-0.7,2.2c-2.3,5.8-4.7,11.7-7.5,17.3c-1.2,2.5-3.5,4.7-6.6,4.8
		c-9.1,0.2-19.6,8.6-21.4,19.6c-0.3,2.1-1.3,2.7-3.2,3.3C44.1,54.6,36,63,32.1,75.4c-2,6.4-1.6,12.8-0.4,19.3
		c-0.7,0.1-1.2,0.2-1.8,0.3c-4,0.7-7.7,2-11,4c-11.2,5.7-19,17.4-19,30.9v2.8c0,19.1,15.6,34.6,34.6,34.6h138.4
		c19.1,0,34.6-15.6,34.6-34.6v-2.8c0.2-11-5-20.8-13.1-27.2c-4.9-4.5-10.7-7.1-17.8-7.9c2.3-10.4,1.1-20-4.5-28.8
		c-5.6-8.8-13.7-14-23.5-16.2c0.2-2.2,0.5-4.1,0.4-6c-0.3-7.4-4.6-12.8-9.4-17.7c-10.8-10.9-23.7-18.5-37.2-25.4
		C101.4,0.2,100.6,0,99.8,0L99.8,0z"/>
</g>
</svg>
